<?xml version="1.0" encoding="UTF-8" standalone="no"?>
<svg
   width="1118pt"
   height="894pt"
   viewBox="0 0 1118 894"
   version="1.1"
   id="svg118"
   sodipodi:docname="logoV4.svg"
   inkscape:version="1.3 (0e150ed6c4, 2023-07-21)"
   xmlns:inkscape="http://www.inkscape.org/namespaces/inkscape"
   xmlns:sodipodi="http://sodipodi.sourceforge.net/DTD/sodipodi-0.dtd"
   xmlns="http://www.w3.org/2000/svg"
   xmlns:svg="http://www.w3.org/2000/svg">
  <defs
     id="defs118" />
  <sodipodi:namedview
     id="namedview118"
     pagecolor="#505050"
     bordercolor="#eeeeee"
     borderopacity="1"
     inkscape:showpageshadow="0"
     inkscape:pageopacity="0"
     inkscape:pagecheckerboard="0"
     inkscape:deskcolor="#505050"
     inkscape:document-units="pt"
     inkscape:zoom="0.48228004"
     inkscape:cx="1047.1095"
     inkscape:cy="614.78803"
     inkscape:window-width="1920"
     inkscape:window-height="1009"
     inkscape:window-x="-8"
     inkscape:window-y="-8"
     inkscape:window-maximized="1"
     inkscape:current-layer="svg118" />
  <path
     fill="#fdfdfd"
     d=" M 0.00 0.00 L 514.62 0.00 C 509.47 1.16 504.16 0.61 498.94 1.04 C 481.65 2.10 464.35 3.43 447.19 5.83 C 443.65 6.14 441.21 8.91 439.14 11.50 C 428.13 13.64 417.00 15.16 406.08 17.75 C 395.63 20.20 385.00 22.55 375.37 27.45 C 373.07 28.70 370.62 29.93 368.99 32.05 C 368.89 34.70 369.38 37.34 369.34 40.00 C 369.34 66.69 369.32 93.38 369.35 120.07 C 369.25 121.77 369.57 123.85 367.89 124.90 C 365.47 125.68 362.89 125.45 360.41 125.79 C 360.28 131.22 360.28 136.71 360.40 142.15 C 363.00 142.34 365.61 142.30 368.22 142.38 C 367.93 154.61 368.90 166.89 367.53 179.06 C 367.26 185.32 367.76 191.59 367.31 197.84 C 366.82 201.15 366.63 204.50 366.69 207.85 C 361.76 207.80 356.82 207.98 351.90 207.82 C 349.42 207.76 347.43 205.81 344.95 205.80 C 343.38 205.95 342.06 206.87 340.68 207.54 C 340.70 209.49 340.71 211.44 340.72 213.40 C 342.80 214.22 345.12 215.51 347.35 214.33 C 353.40 211.51 360.27 213.23 366.71 212.82 C 366.72 215.35 366.73 217.88 366.78 220.41 C 363.98 220.25 361.16 220.36 358.41 220.93 C 358.38 225.69 358.45 230.46 357.73 235.19 C 359.15 238.56 363.49 237.11 366.32 237.33 C 364.48 247.49 366.24 257.85 364.68 268.03 C 364.49 275.35 365.03 282.71 363.93 289.99 C 363.58 307.35 363.73 324.72 363.70 342.08 C 363.68 345.75 363.44 349.41 363.15 353.07 C 361.67 357.24 362.56 361.73 362.25 366.05 C 361.92 370.97 361.61 375.89 361.44 380.81 C 360.70 380.82 359.22 380.82 358.48 380.83 C 358.19 379.12 358.51 377.17 357.36 375.75 C 354.22 375.27 350.84 375.03 348.03 376.77 C 348.17 377.60 348.46 379.24 348.61 380.06 C 347.24 380.58 345.89 381.11 344.54 381.64 C 344.44 382.17 344.23 383.23 344.13 383.76 C 342.16 383.75 340.19 383.75 338.23 383.76 C 337.01 378.30 335.37 372.72 331.71 368.35 C 321.33 355.29 304.61 348.80 288.34 347.50 C 273.60 346.43 258.18 348.56 245.24 356.05 C 237.95 360.56 230.78 366.23 227.18 374.24 C 223.04 382.72 223.28 393.08 227.67 401.41 C 231.21 408.87 238.09 413.90 244.81 418.30 C 248.45 420.72 252.52 422.36 256.62 423.82 C 255.59 425.79 255.12 429.04 252.27 428.94 C 247.25 429.03 242.56 430.91 238.38 433.58 C 238.33 432.48 238.27 431.38 238.22 430.29 C 228.63 430.41 219.05 430.17 209.45 430.26 C 209.31 424.50 209.76 418.72 208.97 413.00 C 208.31 407.31 209.00 401.58 208.45 395.89 C 207.80 389.53 208.65 383.10 207.69 376.77 C 206.92 371.17 207.67 365.52 207.19 359.91 C 206.05 351.65 206.99 343.30 206.17 335.02 C 206.26 330.15 204.88 325.24 201.67 321.50 C 195.32 314.02 185.61 309.94 176.00 308.90 C 164.90 307.85 152.90 309.79 143.99 316.91 C 139.06 320.33 135.13 325.76 134.96 331.93 C 134.79 337.79 134.60 343.69 135.40 349.51 C 136.13 355.65 135.13 361.88 136.04 368.01 C 136.94 374.65 135.81 381.39 136.78 388.03 C 137.67 394.10 136.72 400.25 137.48 406.33 C 138.12 411.89 137.35 417.50 137.96 423.06 C 139.14 430.37 138.00 437.81 138.80 445.15 C 132.74 445.43 126.55 444.46 120.59 445.77 C 120.23 447.65 120.26 449.56 120.15 451.47 C 117.42 451.49 114.69 451.49 111.96 451.51 C 111.46 451.91 110.45 452.72 109.94 453.13 C 108.44 457.29 106.29 461.40 106.30 465.93 C 106.29 469.25 106.13 472.60 106.48 475.91 C 107.41 481.33 109.74 486.54 112.48 491.23 C 115.42 491.47 118.40 491.01 121.35 491.24 C 122.03 493.11 120.47 497.02 123.51 497.05 C 129.13 497.38 134.78 497.00 140.42 497.14 C 141.92 504.45 140.84 511.92 141.57 519.30 C 142.12 525.15 141.39 531.06 142.19 536.91 C 143.06 543.24 141.93 549.67 142.97 555.99 C 143.87 561.94 142.96 567.99 143.65 573.96 C 144.77 580.64 143.69 587.43 144.57 594.13 C 145.19 600.98 143.69 608.41 147.39 614.65 C 151.20 620.60 157.36 624.74 163.89 627.22 C 175.31 631.49 188.44 631.09 199.66 626.36 C 207.27 622.98 214.46 616.72 216.08 608.20 C 217.00 604.50 215.88 600.75 215.75 597.03 C 215.57 592.33 215.89 587.62 215.44 582.93 C 214.88 576.88 215.68 570.77 214.75 564.74 C 213.84 558.63 214.82 552.44 214.09 546.32 C 213.06 539.26 214.15 532.09 213.15 525.02 C 212.94 519.46 212.71 513.80 213.26 508.27 C 216.10 507.52 219.09 507.90 222.00 507.80 C 226.34 507.92 230.69 506.89 235.00 507.73 C 241.34 508.79 247.88 510.55 252.94 514.71 C 255.87 517.42 257.10 521.36 259.66 524.35 C 261.56 526.95 264.00 529.21 265.47 532.10 C 265.78 534.76 265.61 537.45 265.65 540.12 C 270.14 544.58 278.62 544.84 282.39 539.35 C 282.01 537.34 281.73 535.32 281.57 533.30 C 282.79 531.30 283.88 529.23 284.92 527.14 C 289.13 527.14 293.34 527.23 297.55 527.02 C 298.88 526.11 300.34 525.39 302.01 525.59 C 318.68 525.59 335.35 525.62 352.02 525.58 C 357.42 525.47 362.69 526.86 368.05 527.36 C 379.24 528.38 390.48 528.28 401.71 528.51 C 401.79 530.66 401.75 532.84 402.20 534.96 C 405.64 535.08 407.98 537.37 410.24 539.68 C 413.03 540.04 415.86 539.81 418.68 539.79 C 419.55 538.37 420.44 536.97 421.35 535.58 C 422.50 535.48 423.65 535.38 424.81 535.28 C 424.85 533.33 424.87 531.39 424.89 529.45 C 429.66 529.64 434.47 529.27 439.18 530.22 C 442.69 537.56 450.59 541.49 458.32 542.62 C 465.46 543.12 473.04 543.26 479.55 539.79 C 483.17 538.14 486.07 535.37 488.68 532.42 C 495.18 532.44 501.60 533.66 508.10 533.72 C 530.69 535.38 553.37 534.74 576.01 534.87 C 593.89 534.99 611.73 533.71 629.56 532.41 C 635.26 539.77 644.81 543.35 653.97 542.84 C 663.71 543.40 674.48 539.24 679.19 530.24 C 683.86 529.26 688.66 529.65 693.40 529.44 C 693.38 531.45 693.38 533.46 693.39 535.48 C 694.27 535.48 696.03 535.48 696.91 535.48 C 697.84 536.90 698.76 538.34 699.66 539.79 C 702.46 539.82 705.27 540.00 708.07 539.72 C 710.46 537.45 712.65 534.65 716.39 535.14 C 716.43 532.93 716.46 530.72 716.50 528.53 C 723.02 528.73 729.51 527.99 736.03 528.16 C 745.40 528.28 754.66 526.65 763.94 525.62 C 782.22 525.64 800.50 525.45 818.77 525.72 C 823.17 528.47 828.71 526.61 833.61 527.19 C 834.52 529.14 835.55 531.04 836.37 533.05 C 836.97 535.46 836.09 537.99 836.60 540.42 C 840.68 544.51 848.48 544.64 852.36 540.15 C 852.65 537.80 851.92 535.44 852.22 533.09 C 854.16 529.17 857.52 526.19 859.93 522.58 C 862.44 518.86 864.49 514.48 868.67 512.34 C 879.89 506.26 893.08 506.87 905.40 507.83 C 905.36 513.87 905.75 519.96 904.95 525.97 C 904.24 531.97 905.20 538.03 904.31 544.01 C 903.38 550.26 904.21 556.60 903.56 562.87 C 903.00 569.00 903.77 575.18 902.92 581.29 C 902.07 587.73 903.18 594.26 902.15 600.69 C 901.11 606.58 902.73 612.91 906.54 617.53 C 910.24 621.59 914.79 625.01 920.01 626.84 C 926.01 629.33 932.56 630.03 939.01 629.78 C 949.29 630.08 959.81 626.42 967.25 619.23 C 970.87 615.79 973.06 610.97 973.47 606.01 C 973.75 600.98 973.14 595.91 973.89 590.90 C 974.80 584.79 973.81 578.57 974.57 572.45 C 975.26 566.39 974.33 560.26 975.27 554.23 C 976.13 548.20 975.13 542.08 975.92 536.06 C 977.00 529.39 975.76 522.60 976.77 515.92 C 977.71 509.79 976.60 503.55 977.46 497.42 C 983.33 496.16 989.45 497.20 995.42 496.81 C 995.58 496.90 995.91 497.08 996.07 497.17 C 996.67 495.15 997.13 493.09 997.74 491.07 C 1000.68 490.75 1004.35 492.19 1006.90 490.27 C 1008.81 485.19 1011.42 480.25 1011.98 474.77 C 1012.50 469.14 1012.54 463.27 1010.25 457.99 C 1009.33 455.85 1008.60 453.53 1006.96 451.82 C 1004.11 451.21 1001.18 451.53 998.31 451.50 C 998.00 449.56 998.76 447.18 997.26 445.65 C 991.31 444.52 985.17 445.44 979.15 445.13 C 980.43 437.42 979.13 429.57 980.38 421.87 C 980.95 415.93 980.09 409.94 980.90 404.03 C 981.85 397.89 980.85 391.65 981.58 385.50 C 982.32 379.38 981.39 373.18 982.25 367.07 C 983.26 360.13 982.01 353.06 983.17 346.13 C 983.54 340.72 983.50 335.26 983.25 329.85 C 981.55 321.70 974.54 316.08 967.42 312.60 C 955.21 307.29 940.67 307.20 928.49 312.64 C 922.47 315.74 916.31 319.86 913.64 326.36 C 912.05 329.66 912.71 333.37 912.24 336.88 C 911.17 343.32 912.21 349.87 911.44 356.34 C 910.76 362.17 911.64 368.07 910.82 373.89 C 909.79 380.55 910.97 387.32 910.01 393.98 C 909.13 400.32 910.20 406.75 909.30 413.09 C 908.51 418.79 908.97 424.55 908.85 430.29 C 899.32 430.31 889.78 430.26 880.25 430.29 C 880.20 431.57 880.17 432.85 880.14 434.14 C 875.54 430.34 869.59 428.88 863.71 429.18 C 863.09 427.33 862.49 425.48 861.90 423.63 C 871.82 420.01 881.30 414.34 887.86 405.92 C 894.48 397.07 896.11 384.71 891.36 374.63 C 885.96 363.59 875.26 356.21 864.10 351.80 C 849.77 346.67 833.98 345.92 819.14 349.15 C 806.80 351.97 794.87 358.10 786.79 368.04 C 783.04 372.20 781.58 377.67 779.75 382.81 C 777.60 384.94 774.29 383.09 773.08 380.86 C 772.04 380.65 771.00 380.45 769.97 380.25 C 770.20 379.18 770.44 378.12 770.69 377.07 C 768.17 373.90 763.82 375.81 760.41 375.51 C 760.24 377.12 760.07 378.74 759.93 380.36 C 758.74 380.22 757.56 380.08 756.39 379.95 C 756.56 369.23 756.30 358.45 755.14 347.78 C 755.07 347.50 754.93 346.95 754.85 346.68 C 754.36 335.79 754.84 324.87 754.60 313.97 C 754.31 304.32 754.99 294.60 753.74 285.00 C 753.55 281.54 753.69 278.08 753.69 274.63 C 760.25 274.25 767.41 275.92 773.38 272.37 C 776.87 270.54 780.21 267.23 779.73 262.95 C 780.39 257.91 775.92 254.12 771.66 252.48 C 765.76 249.82 759.26 251.92 753.06 251.40 C 752.89 246.69 752.31 242.01 752.21 237.30 C 754.62 237.17 757.38 238.11 759.50 236.57 C 760.68 232.15 760.15 227.42 759.96 222.89 C 759.38 218.95 754.24 220.72 751.53 220.41 C 751.56 217.87 751.57 215.33 751.60 212.80 C 756.41 212.85 761.23 212.65 766.04 212.83 C 768.50 212.96 770.59 214.56 773.03 214.85 C 774.61 214.73 776.07 214.01 777.57 213.48 C 777.57 211.41 777.57 209.35 777.59 207.29 C 774.48 205.35 770.93 206.08 767.85 207.59 C 762.50 208.26 757.06 207.67 751.67 207.86 C 751.63 204.55 751.24 201.28 750.91 198.00 C 750.60 191.39 751.05 184.76 750.68 178.16 L 749.54 180.04 C 750.12 178.06 750.31 176.01 750.28 173.96 C 750.21 163.43 750.27 152.89 750.24 142.36 C 752.78 142.31 755.35 142.13 757.83 141.44 C 757.67 136.49 758.18 131.50 757.54 126.59 C 755.30 124.73 752.19 125.64 749.54 125.54 C 749.46 124.90 749.31 123.62 749.23 122.99 C 748.94 92.73 749.08 62.45 749.18 32.20 C 744.74 27.69 738.72 25.21 732.82 23.23 C 715.41 17.51 697.23 14.82 679.26 11.51 C 677.09 8.82 674.43 6.19 670.82 5.80 C 652.97 3.36 635.00 1.90 617.01 0.89 C 612.67 0.73 608.29 0.93 604.02 0.00 L 1118.00 0.00 L 1118.00 738.62 C 745.33 738.62 372.67 738.62 0.00 738.62 L 0.00 0.00 Z"
     id="path1"
     style="fill:none;stroke:#000000;stroke-opacity:1" />
  <path
     fill="#3360e3"
     d=" M 514.62 0.00 L 604.02 0.00 C 608.29 0.93 612.67 0.73 617.01 0.89 C 635.00 1.90 652.97 3.36 670.82 5.80 C 674.43 6.19 677.09 8.82 679.26 11.51 C 697.23 14.82 715.41 17.51 732.82 23.23 C 738.72 25.21 744.74 27.69 749.18 32.20 C 749.08 62.45 748.94 92.73 749.23 122.99 C 743.88 115.21 734.22 112.46 725.40 110.93 C 681.62 103.80 637.36 99.77 593.05 98.19 C 582.81 98.45 572.62 97.56 562.40 97.22 C 562.85 95.48 562.07 92.95 564.03 91.98 C 573.68 91.15 583.35 92.40 593.01 92.29 C 636.45 94.03 679.89 97.63 722.81 104.75 C 727.69 105.72 734.85 108.03 737.48 102.09 C 737.01 99.41 736.73 96.70 736.76 93.98 C 736.83 79.00 736.80 64.02 736.78 49.04 C 736.73 45.11 737.38 41.19 736.99 37.27 C 734.72 36.72 732.41 36.19 730.07 36.13 C 616.03 36.11 501.98 36.15 387.93 36.11 C 385.67 36.27 382.65 36.06 381.31 38.30 C 380.81 41.52 381.68 44.81 381.54 48.06 C 381.40 65.97 381.74 83.89 381.32 101.79 C 381.33 103.41 382.42 105.04 384.00 105.51 C 388.28 106.93 392.62 105.03 396.88 104.47 C 442.59 97.16 488.84 93.31 535.10 92.05 C 541.67 91.55 548.27 91.82 554.86 91.81 C 555.16 93.62 555.48 95.43 555.79 97.24 C 550.51 97.22 545.26 97.78 540.00 98.04 C 490.96 98.56 442.00 103.16 393.57 110.79 C 387.50 111.67 381.49 113.36 376.13 116.39 C 372.63 118.42 369.75 121.53 368.68 125.51 C 366.10 125.77 362.89 124.69 361.14 127.19 C 360.07 131.60 360.08 136.40 361.14 140.80 C 363.02 142.66 365.82 142.13 368.22 142.38 C 365.61 142.30 363.00 142.34 360.40 142.15 C 360.28 136.71 360.28 131.22 360.41 125.79 C 362.89 125.45 365.47 125.68 367.89 124.90 C 369.57 123.85 369.25 121.77 369.35 120.07 C 369.32 93.38 369.34 66.69 369.34 40.00 C 369.38 37.34 368.89 34.70 368.99 32.05 C 370.62 29.93 373.07 28.70 375.37 27.45 C 385.00 22.55 395.63 20.20 406.08 17.75 C 417.00 15.16 428.13 13.64 439.14 11.50 C 441.21 8.91 443.65 6.14 447.19 5.83 C 464.35 3.43 481.65 2.10 498.94 1.04 C 504.16 0.61 509.47 1.16 514.62 0.00 Z"
     id="path2"
     style="stroke:#000000;stroke-opacity:1" />
  <path
     id="path3"
     d="M 387.93018 36.109863 C 385.67018 36.269863 382.65055 36.059855 381.31055 38.299805 C 380.81055 41.519705 381.68053 44.810134 381.54053 48.060059 C 381.40053 65.969609 381.73934 83.890905 381.31934 101.79053 C 381.32934 103.41053 382.42 105.03977 384 105.50977 C 388.28 106.92952 392.62062 105.02973 396.88037 104.46973 C 442.58937 97.15983 488.8411 93.309291 535.1001 92.049316 C 541.66985 91.549341 548.26938 91.820547 554.85938 91.810547 C 555.15913 93.620497 555.47955 95.430748 555.78955 97.240723 C 550.5098 97.220723 545.25975 97.780552 540 98.040527 C 490.96125 98.560527 441.99882 103.16053 393.56982 110.79053 C 387.50007 111.67053 381.48939 113.36063 376.12939 116.39063 C 372.62964 118.42038 369.75066 121.52928 368.68066 125.50928 C 366.10091 125.76928 362.88965 124.6897 361.13965 127.18945 C 360.06965 131.59945 360.07965 136.39932 361.13965 140.79932 C 363.01965 142.65907 365.82095 142.12988 368.2207 142.37988 C 367.9307 154.60963 368.8993 166.88982 367.5293 179.05957 C 367.2593 185.31932 367.75957 191.59058 367.30957 197.84033 C 366.81957 201.15033 366.62994 204.49961 366.68994 207.84961 C 361.76019 207.79961 356.81941 207.98031 351.89941 207.82031 C 349.41966 207.76031 347.42995 205.81029 344.9502 205.80029 C 343.3802 205.95029 342.05993 206.87053 340.68018 207.54053 C 340.70018 209.49053 340.70973 211.4399 340.71973 213.3999 C 342.79948 214.2199 345.11961 215.51008 347.34961 214.33008 C 353.39936 211.51008 360.2707 213.22982 366.71045 212.81982 C 366.72045 215.34982 366.7293 217.88089 366.7793 220.41064 C 363.9793 220.25064 361.16064 220.36066 358.41064 220.93066 C 358.38064 225.69066 358.44949 230.4597 357.72949 235.18945 C 359.14949 238.55945 363.48934 237.10959 366.31934 237.32959 C 364.47934 247.48934 366.23993 257.85004 364.68018 268.02979 C 364.49018 275.34954 365.02993 282.71097 363.93018 289.99072 C 363.58018 307.35047 363.7302 324.72082 363.7002 342.08057 C 363.6802 345.75032 363.43941 349.41007 363.14941 353.06982 C 361.66966 357.23982 362.56 361.73005 362.25 366.0498 C 361.92 370.9698 361.60994 375.88982 361.43994 380.80957 C 360.69994 380.81957 359.21949 380.82008 358.47949 380.83008 C 358.18949 379.12008 358.51035 377.17 357.36035 375.75 C 354.22035 375.27 350.83905 375.02953 348.0293 376.76953 C 348.1693 377.59953 348.45938 379.23957 348.60938 380.05957 C 347.23938 380.57957 345.89004 381.11014 344.54004 381.64014 C 344.44004 382.17014 344.22988 383.22977 344.12988 383.75977 C 342.15988 383.74977 340.18949 383.74977 338.22949 383.75977 C 337.00949 378.29977 335.36947 372.71961 331.70947 368.34961 C 321.32972 355.28986 304.60959 348.80049 288.33984 347.50049 C 273.60034 346.43049 258.17925 348.55932 245.23975 356.04932 C 237.94975 360.55907 230.77944 366.22975 227.17969 374.23975 C 223.03969 382.7195 223.28041 393.07992 227.67041 401.40967 C 231.21041 408.86942 238.09055 413.89932 244.81055 418.29932 C 246.68048 419.40925 248.62742 420.36953 250.61865 421.23486 C 252.60989 422.1002 254.64543 422.87059 256.69043 423.60059 C 256.08043 425.62034 255.50057 427.65975 255.08057 429.73975 C 253.50307 429.63475 251.89112 429.60911 250.29199 429.70898 L 250.29053 429.70898 C 248.69189 429.8089 247.1059 430.03479 245.58252 430.43408 C 244.05868 430.83349 242.59675 431.4056 241.24512 432.19922 C 239.89349 432.99284 238.65232 434.00754 237.56982 435.29004 C 235.90089 435.51854 234.19269 435.49076 232.47656 435.42188 C 230.73795 435.35205 228.99168 435.2399 227.27051 435.30029 C 227.12051 433.88029 227.15037 432.42033 226.63037 431.09033 C 226.29037 430.89033 225.60049 430.49932 225.25049 430.29932 C 219.95049 430.26932 214.6495 430.34008 209.34961 430.33008 C 209.30961 425.86008 209.53064 421.38944 209.16064 416.92969 C 208.87064 414.86219 208.73057 412.78656 208.6626 410.70703 C 208.59463 408.6275 208.59855 406.54406 208.59668 404.46094 C 208.59483 402.42224 208.58337 400.38374 208.49707 398.34961 C 208.4945 398.28911 208.49392 398.22846 208.49121 398.16797 C 208.3989 396.10589 208.22537 394.04843 207.89063 391.99951 C 207.88578 387.15413 207.71512 382.32195 207.54199 377.4873 C 207.49822 376.26388 207.46348 375.03988 207.42188 373.81641 C 207.43957 374.12756 207.45144 374.43858 207.47607 374.74951 C 207.40718 372.77857 207.38335 370.80451 207.33398 368.83301 C 207.32551 369.75377 207.33302 370.67428 207.34863 371.59424 C 207.24973 368.4044 207.16992 365.21369 207.16992 362.02002 C 206.85992 359.86252 206.70311 357.69842 206.62061 355.53076 C 206.53811 353.36311 206.52953 351.19152 206.51953 349.021 C 206.50962 346.85173 206.49754 344.68211 206.40527 342.51709 C 206.40521 342.51563 206.40534 342.51416 206.40527 342.5127 C 206.40523 342.51172 206.40531 342.51074 206.40527 342.50977 C 206.3128 340.34426 206.1404 338.18319 205.81055 336.0293 C 205.85801 334.73778 205.81765 333.44566 205.68311 332.16943 C 205.683 332.16847 205.68321 332.16747 205.68311 332.1665 C 205.68294 332.16498 205.6818 332.16364 205.68164 332.16211 C 205.54678 330.88651 205.31777 329.62721 204.98438 328.39746 C 204.65065 327.16684 204.21396 325.96567 203.66455 324.81152 L 203.66309 324.81006 C 203.11329 323.65539 202.45193 322.54701 201.66943 321.49951 C 195.31968 314.01976 185.60926 309.94039 175.99951 308.90039 C 164.89976 307.85039 152.8995 309.79016 143.98975 316.91016 C 139.05975 320.32991 135.13045 325.76091 134.96045 331.93066 C 134.79045 337.79066 134.5999 343.6905 135.3999 349.51025 C 136.1299 355.65025 135.13004 361.87977 136.04004 368.00977 C 136.94004 374.64952 135.80979 381.38979 136.77979 388.02979 C 137.66954 394.09954 136.71998 400.25008 137.47998 406.33008 C 138.11998 411.88983 137.35045 417.50006 137.96045 423.06006 C 139.14045 430.36981 138.00005 437.81015 138.7998 445.1499 C 132.74005 445.4299 126.55033 444.45953 120.59033 445.76953 C 120.23033 447.64953 120.25941 449.56095 120.14941 451.4707 C 117.41966 451.4907 114.68947 451.49025 111.95947 451.51025 C 111.45947 451.91025 110.44945 452.72037 109.93945 453.13037 C 108.43945 457.29037 106.28932 461.40018 106.29932 465.93018 C 106.28932 469.24993 106.12949 472.60016 106.47949 475.91016 C 108.11949 480.76991 109.11007 486.54934 113.06982 490.06934 C 115.65982 491.21909 118.55957 490.71061 121.30957 490.87061 C 121.73957 492.60036 121.73992 494.61992 123.16992 495.91992 C 128.70992 497.73992 134.75978 496.39928 140.51953 496.75928 C 142.29953 504.73903 140.55049 512.97097 142.00049 520.99072 C 142.39049 538.64047 143.6399 556.27997 143.6499 573.95947 C 144.7699 580.63947 143.69007 587.43062 144.56982 594.13037 C 145.18982 600.98012 143.68965 608.41015 147.38965 614.6499 C 151.1994 620.5999 157.35965 624.73973 163.88965 627.21973 C 167.08457 628.50965 170.41977 628.96282 173.79492 629.13281 C 177.17015 629.3028 180.58551 629.18961 183.94043 629.34961 C 186.32192 629.3646 188.71442 629.16221 191.06836 628.74316 C 191.07081 628.74273 191.07323 628.74214 191.07568 628.7417 C 193.42653 628.32273 195.73908 627.68658 197.96484 626.83594 C 197.96917 626.83428 197.9737 626.8332 197.97803 626.83154 C 200.20217 625.98058 202.33942 624.91464 204.34131 623.63379 C 204.34667 623.63036 204.35206 623.62697 204.35742 623.62354 C 206.36055 622.34026 208.22798 620.84214 209.91064 619.12939 C 210.99814 618.02702 211.98011 616.80347 212.82715 615.49072 C 213.66967 614.18497 214.37593 612.78958 214.92041 611.33936 C 214.92597 611.32456 214.93247 611.31022 214.93799 611.29541 C 215.47651 609.8509 215.8517 608.35063 216.03516 606.82617 C 216.03669 606.8134 216.03951 606.80086 216.04102 606.78809 C 216.2225 605.25252 216.20995 603.6927 215.9707 602.14014 C 215.73538 600.4512 215.78385 598.75113 215.75098 597.0542 C 215.75077 597.04346 215.75124 597.03271 215.75098 597.02197 C 215.72942 595.8817 215.59102 594.74588 215.60303 593.60449 L 215.60303 593.60303 C 215.6329 590.75223 215.69513 587.89949 215.43018 585.06006 C 214.86018 581.08006 214.78527 577.07277 214.74902 573.06152 C 214.71256 569.05019 214.71432 565.03447 214.29932 561.03955 C 214.46997 556.16111 214.16332 551.30235 213.86865 546.44385 C 213.81366 545.53739 213.85221 544.6273 213.80127 543.7207 C 213.59635 541.19072 213.59975 538.64991 213.6123 536.10791 C 213.60383 534.72409 213.44842 533.34608 213.50977 531.95947 C 213.05977 527.90956 212.86679 523.85007 212.76563 519.78516 C 212.66438 515.72016 212.65434 511.64999 212.56934 507.58008 C 215.02925 507.27008 217.51032 507.02037 219.99023 507.13037 C 223.75023 507.22537 227.56215 507.01546 231.3457 507.0791 C 233.23758 507.11098 235.1224 507.21154 236.98975 507.45264 C 238.85701 507.69373 240.70729 508.07492 242.52979 508.66992 C 244.2821 509.66198 246.1785 510.45153 247.99805 511.36084 C 248.88854 511.80593 249.76064 512.27926 250.58789 512.81982 C 251.42695 513.3681 252.22043 513.98447 252.94043 514.70947 C 255.87043 517.41947 257.09967 521.35961 259.65967 524.34961 C 261.55967 526.94961 264.0007 529.2101 265.4707 532.1001 C 265.7807 534.75985 265.60941 537.45012 265.64941 540.12012 C 270.13941 544.57987 278.61965 544.83936 282.38965 539.34961 C 282.00965 537.33961 281.72934 535.3198 281.56934 533.2998 C 282.78909 531.30005 283.87943 529.22989 284.91943 527.14014 C 289.12943 527.14014 293.33932 527.23002 297.54932 527.02002 C 298.87932 526.11002 300.33977 525.39033 302.00977 525.59033 C 318.67927 525.59033 335.35003 525.62008 352.01953 525.58008 C 357.41953 525.47008 362.68932 526.85986 368.04932 527.35986 C 379.23907 528.37986 390.48021 528.27977 401.70996 528.50977 C 401.78996 530.65952 401.75068 532.83947 402.20068 534.95947 C 405.64068 535.07947 407.97975 537.37091 410.23975 539.68066 C 413.0295 540.04066 415.86018 539.81053 418.68018 539.79053 C 419.54993 538.37053 420.44059 536.97057 421.35059 535.58057 C 422.50034 535.48057 423.65055 535.38027 424.81055 535.28027 C 424.85055 533.33052 424.86965 531.38995 424.88965 529.4502 C 429.6594 529.6402 434.47091 529.2707 439.18066 530.2207 C 442.69066 537.5607 450.59056 541.49061 458.32031 542.62061 C 465.46031 543.12036 473.04054 543.26028 479.55029 539.79053 C 483.17029 538.14053 486.07091 535.36943 488.68066 532.41943 C 495.18066 532.43943 501.6001 533.66021 508.1001 533.72021 C 530.6896 535.38021 553.371 534.74012 576.01025 534.87012 C 593.89 534.99012 611.7308 533.71064 629.56055 532.41064 C 635.2603 539.77064 644.81095 543.35033 653.9707 542.84033 C 663.71045 543.40033 674.4797 539.2395 679.18945 530.23975 C 683.85945 529.25975 688.66015 529.64994 693.3999 529.43994 C 693.3799 531.44994 693.37965 533.45949 693.38965 535.47949 L 696.90967 535.47949 C 697.83967 536.89949 698.76089 538.34053 699.66064 539.79053 C 702.46064 539.82053 705.27056 540.00021 708.07031 539.72021 C 710.46031 537.45046 712.65063 534.64965 716.39063 535.13965 C 716.43038 532.92965 716.46049 530.72027 716.50049 528.53027 C 723.02024 528.73027 729.50979 527.98967 736.02979 528.15967 C 745.39954 528.27967 754.6597 526.64963 763.93945 525.61963 C 782.21895 525.63963 800.50052 525.4507 818.77002 525.7207 C 823.17002 528.4707 828.7106 526.60994 833.61035 527.18994 C 834.52035 529.13994 835.55012 531.03932 836.37012 533.04932 C 836.97012 535.45907 836.0901 537.99041 836.6001 540.42041 C 840.67985 544.51041 848.4806 544.63941 852.36035 540.14941 C 852.65035 537.79966 851.91973 535.44033 852.21973 533.09033 C 854.15948 529.17058 857.52091 526.18983 859.93066 522.58008 C 862.14066 518.48008 864.5397 514.08047 868.93945 511.98047 C 880.1292 505.91047 893.26953 507.0907 905.50928 507.7207 C 905.48928 514.8207 905.80939 521.94978 904.87939 529.01953 C 904.78939 539.35928 904.2301 549.68052 904.1001 560.03027 C 902.9301 567.05027 903.86043 574.17975 903.19043 581.23975 C 902.20043 587.8095 903.10986 594.46934 902.35986 601.06934 C 901.68986 606.48909 902.82037 612.24017 906.13037 616.66992 C 909.79037 621.14992 914.71977 624.54033 920.00977 626.84033 C 926.00952 629.33033 932.5605 630.03027 939.01025 629.78027 C 949.29 630.08027 959.80976 626.42022 967.24951 619.23047 C 970.86951 615.79047 973.0607 610.97025 973.4707 606.01025 C 973.7507 600.9805 973.13965 595.91039 973.88965 590.90039 C 974.79965 584.79064 973.80934 578.57068 974.56934 572.45068 C 975.25934 566.39093 974.32953 560.25949 975.26953 554.22949 C 976.12953 548.19974 975.12992 542.07932 975.91992 536.05957 C 976.99992 529.38982 975.75953 522.59943 976.76953 515.91943 C 977.70953 509.78968 976.59947 503.54992 977.45947 497.41992 C 983.32947 496.15992 989.45017 497.20055 995.41992 496.81055 C 995.86992 494.93055 996.32992 493.00957 996.16992 491.05957 C 999.36992 490.72957 1002.7801 491.20037 1005.8101 489.88037 C 1012.5001 480.87062 1013.47 468.51047 1010.25 457.99072 C 1009.33 455.85072 1008.6 453.52909 1006.96 451.81934 C 1004.11 451.20934 1001.1801 451.53 998.31006 451.5 C 998.00006 449.56 998.75952 447.17941 997.25977 445.64941 C 991.30977 444.51966 985.1699 445.43939 979.1499 445.12939 C 980.4299 437.41964 979.13037 429.57036 980.38037 421.87061 C 980.95037 415.93061 980.09039 409.94027 980.90039 404.03027 C 981.85039 397.89052 980.85008 391.64975 981.58008 385.5 C 982.32008 379.38025 981.38951 373.17909 982.24951 367.06934 C 983.25951 360.12934 982.00943 353.05939 983.16943 346.12939 C 983.53943 340.71964 983.5 335.26034 983.25 329.85059 C 981.55 321.70059 974.53943 316.08034 967.41943 312.60059 C 955.20993 307.29059 940.66925 307.20014 928.48975 312.64014 C 922.46975 315.73989 916.31038 319.86011 913.64063 326.35986 C 912.05063 329.65986 912.71023 333.37037 912.24023 336.88037 C 911.17048 343.32012 912.21043 349.86936 911.44043 356.33936 C 910.76043 362.16911 911.63934 368.06965 910.81934 373.88965 C 909.78934 380.5494 910.96928 387.32023 910.00928 393.97998 C 909.12928 400.31973 910.20029 406.75058 909.30029 413.09033 C 908.51029 418.79033 908.97059 424.55053 908.85059 430.29053 C 899.32084 430.31053 889.77926 430.26053 880.24951 430.29053 C 880.19951 431.57053 880.16965 432.85014 880.13965 434.14014 C 875.53965 430.34014 869.58996 428.88018 863.70996 429.18018 C 863.08996 427.33018 862.48941 425.47988 861.89941 423.62988 C 871.81916 420.01013 881.29938 414.33967 887.85938 405.91992 C 894.47913 397.07017 896.11035 384.70914 891.36035 374.62939 C 885.9606 363.58989 875.25936 356.2098 864.09961 351.7998 C 849.76986 346.67005 833.98013 345.92015 819.14063 349.1499 C 806.80088 351.9699 794.8693 358.10078 786.78955 368.04053 C 783.56955 372.77028 780.81971 378.06013 780.44971 383.87988 C 778.07971 383.90988 775.73037 383.95064 773.38037 383.91064 C 773.24037 383.22089 772.95055 381.83941 772.81055 381.14941 C 771.84055 380.83941 770.87945 380.54 769.93945 380.25 C 769.69945 379.14 769.44066 378.03996 769.18066 376.95996 C 766.98091 374.62996 763.3195 375.76963 760.48975 375.61963 C 760.32975 377.42963 760.19029 379.25006 760.05029 381.06006 C 754.31054 380.10006 747.62947 382.61995 742.70947 378.7002 C 742.48947 377.5202 742.23947 376.35068 741.95947 375.20068 C 739.97947 374.74068 737.93993 374.63951 735.93018 374.74951 C 733.82018 374.37951 734.04971 376.95018 733.19971 378.18018 C 732.24971 379.19993 731.12004 380.02039 730.04004 380.90039 C 726.92004 380.84039 723.78944 380.83053 720.67969 380.79053 C 720.64969 372.05078 720.74969 363.30982 720.67969 354.56982 C 721.22969 354.01982 721.80037 353.48066 722.38037 352.93066 C 722.34037 351.06091 722.33986 349.19031 722.35986 347.32031 C 719.78011 347.27031 717.19988 347.25975 714.62988 347.23975 C 709.17013 315.4505 703.71026 283.66913 698.27051 251.87988 C 700.94051 251.83988 703.61932 251.81932 706.29932 251.79932 C 704.47932 258.86907 703.55043 266.71932 706.69043 273.54932 C 707.20043 274.86932 708.76964 274.42961 709.87939 274.59961 C 722.81914 274.64961 735.76118 274.48992 748.70068 274.66992 C 750.21068 294.45942 751.64947 314.26079 753.20947 334.05029 C 753.59947 338.27029 753.3201 342.64018 754.8501 346.68018 C 754.3601 335.79043 754.83961 324.86996 754.59961 313.97021 C 754.30961 304.32046 754.9895 294.59975 753.73975 285 C 753.54975 281.54 753.68994 278.08037 753.68994 274.63037 C 760.24969 274.25037 767.41062 275.91987 773.38037 272.37012 C 776.87037 270.54012 780.21047 267.22946 779.73047 262.94971 C 780.39047 257.90971 775.92064 254.12047 771.66064 252.48047 C 765.76089 249.82047 759.25981 251.91941 753.06006 251.39941 C 752.89006 246.68966 752.31045 242.01029 752.21045 237.30029 C 754.62045 237.17029 757.37951 238.10909 759.49951 236.56934 C 760.67951 232.14934 760.14947 227.42038 759.95947 222.89063 C 759.37947 218.95063 754.23905 220.72064 751.5293 220.41064 C 751.5593 217.87089 751.56961 215.32907 751.59961 212.79932 C 756.40936 212.84932 761.23004 212.65008 766.04004 212.83008 C 768.50004 212.96008 770.59052 214.5601 773.03027 214.8501 C 774.61027 214.7301 776.07007 214.01047 777.56982 213.48047 C 777.56982 211.41047 777.57033 209.35004 777.59033 207.29004 C 774.48058 205.35004 770.93034 206.08033 767.85059 207.59033 C 762.50059 208.26033 757.05992 207.66986 751.66992 207.85986 C 751.62992 204.55011 751.23967 201.28 750.90967 198 C 750.59967 191.39025 751.04969 184.75991 750.67969 178.16016 L 749.54004 180.03955 C 749.64004 186.6893 749.29072 193.37027 749.74072 200.02002 C 750.79072 208.62977 749.73006 217.32068 750.81006 225.94043 C 750.70006 234.44018 751.25973 242.90966 751.71973 251.39941 C 750.86973 251.40941 749.15932 251.44068 748.29932 251.45068 C 747.21932 240.03118 746.92008 228.48965 745.33008 217.1499 C 744.80008 218.6999 744.55994 220.33949 744.68994 221.97949 C 745.36994 231.78924 746.57053 241.58017 746.79053 251.41992 C 735.84078 251.43992 724.88969 251.45018 713.93994 251.43018 C 708.27019 251.26018 702.61068 250.91045 696.95068 251.21045 C 701.97068 283.2697 708.37932 315.12024 713.04932 347.22949 C 710.65932 347.20949 708.27038 347.1198 705.89063 347.2998 C 704.98063 351.0498 707.51992 354.37934 707.41992 358.06934 C 707.43992 365.64909 707.42018 373.21932 707.43018 380.79932 C 678.63068 380.91932 649.81976 380.82059 621.02051 380.85059 C 602.97101 380.70059 584.89888 381.16035 566.85938 380.61035 C 566.90913 385.46035 566.93072 390.31968 566.74072 395.16943 C 621.35947 395.17943 675.98061 395.1102 730.58936 395.2002 C 730.59936 408.0097 730.57961 420.83088 730.59961 433.64063 C 735.69936 433.70038 740.78965 433.70012 745.88965 433.62012 C 745.89965 420.81037 745.77996 407.9997 745.95996 395.2002 C 750.82996 395.2102 755.70056 395.08002 760.57031 395.02002 C 760.78031 396.58002 760.73025 398.2107 761.26025 399.7207 C 763.75025 400.1707 767.0899 400.8898 769.1499 399.0498 C 769.4299 397.93005 769.68945 396.80971 769.93945 395.69971 C 771.49945 394.73971 773.07059 393.76072 774.60059 392.74072 C 776.49034 392.67072 778.39029 392.6401 780.30029 392.6001 C 781.70029 397.18985 783.49961 401.67095 786.09961 405.7207 C 781.60961 407.3207 777.8598 410.54965 776.2998 415.13965 C 776.1698 415.61965 775.89953 416.58006 775.76953 417.06006 C 774.31953 429.77981 774.04942 442.94015 768.90967 454.8999 C 764.73967 448.04015 760.86041 440.9898 756.42041 434.2998 C 755.41041 442.1398 755.7398 450.12976 756.0498 457.99951 C 758.4198 460.65951 761.26054 462.86061 763.80029 465.37061 C 760.22054 470.89036 754.92942 475.35046 748.65967 477.47021 C 740.49992 480.16021 731.78938 479.07031 723.61963 477.07031 C 723.30963 464.16081 723.58021 451.2496 723.47021 438.3501 C 718.37046 437.3101 713.17025 437.71066 708.01025 437.68066 C 663.3315 437.67066 618.63847 437.69041 573.95947 437.67041 C 572.81947 437.91041 570.41951 437.23009 570.49951 439.08984 C 570.33951 453.34959 570.5799 467.6304 570.3999 481.8999 C 586.89965 482.4699 603.44046 481.95988 619.95996 482.12988 C 650.67921 482.12988 681.4011 482.13014 712.11035 482.14014 C 712.15035 480.82014 712.18951 479.52021 712.24951 478.22021 C 714.12951 479.52021 715.91953 480.98971 718.01953 481.94971 C 730.04928 486.69946 743.62084 486.5803 755.85059 482.56055 C 755.82059 492.9503 755.87957 503.35 755.80957 513.73975 C 729.03032 513.72975 702.24971 513.86943 675.47021 513.66943 C 665.78046 505.13968 650.86884 503.94064 639.31934 509.15039 C 635.74934 510.49039 633.11021 514.29955 628.97021 513.78955 C 584.98146 513.71955 540.99902 513.78025 497.02002 513.76025 C 493.35002 513.68025 489.63 514.11971 486 513.44971 C 483.37 511.99971 481.08002 509.94055 478.27002 508.81055 C 469.16027 504.95055 458.34987 505.17006 449.37012 509.31006 C 446.15012 510.56006 443.83913 514.0893 440.10938 513.7793 C 414.23988 513.7193 388.35973 513.8207 362.49023 513.7207 C 362.61023 503.30095 362.19947 492.87922 362.45947 482.45947 C 376.09922 487.03947 392.21976 487.06038 404.74951 479.39063 L 405.56982 479.2793 L 406.12939 479.2207 C 406.20939 479.9507 406.36994 481.41014 406.43994 482.14014 C 449.62894 482.12014 492.81197 482.13988 535.99072 482.12988 C 539.92072 482.12988 543.85979 482.47932 547.77979 482.04932 C 547.87979 467.30957 547.88953 452.56958 547.76953 437.83008 C 499.17078 437.45008 450.5592 437.83965 401.96045 437.63965 C 399.70045 437.62965 397.41994 437.6093 395.18994 438.0293 C 394.28994 450.9188 395.16928 463.90032 394.75928 476.81982 C 383.07953 480.50982 368.85948 480.26066 359.46973 471.43066 C 349.98998 461.77091 346.42012 448.06006 344.37012 435.07031 C 342.89012 427.36056 344.18952 418.96986 340.25977 411.85986 C 338.63977 408.66011 335.26064 407.09994 332.16064 405.68994 C 334.86064 401.66019 336.92961 397.17911 337.59961 392.33936 C 339.58961 392.30936 341.59057 392.19955 343.58057 392.28955 C 345.04032 393.68955 346.65011 395.07934 348.85986 394.81934 C 348.82986 395.85909 348.82057 396.88945 348.83057 397.93945 C 348.98057 398.52945 349.2902 399.73008 349.4502 400.33008 C 351.62995 400.50008 353.83002 400.46955 356.02002 400.53955 C 356.59002 400.12955 357.71002 399.31039 358.27002 398.90039 C 358.28002 397.67039 358.30008 396.4495 358.33008 395.23975 C 359.45008 395.23975 360.57973 395.24 361.71973 395.25 C 365.27948 395.2 368.84016 395.1502 372.41016 395.2002 C 372.40016 408.0197 372.39041 420.82991 372.42041 433.64941 C 377.52041 433.68941 382.62095 433.68967 387.7207 433.65967 C 387.7507 420.85992 387.76045 408.06026 387.71045 395.27051 C 442.30895 395.03051 496.91053 395.20943 551.50928 395.16943 C 551.39928 390.31968 551.40023 385.47036 551.49023 380.62061 C 532.66073 381.16036 513.80899 380.70059 494.97949 380.85059 C 466.92024 380.77059 438.85882 381.02047 410.80957 380.73047 C 410.88957 372.05072 410.86913 363.36995 410.85938 354.7002 C 411.42913 354.1402 411.99031 353.58027 412.57031 353.03027 C 412.52031 351.11052 412.51051 349.19051 412.52051 347.27051 C 406.93051 347.27051 401.34952 347.22012 395.75977 347.37012 C 395.94977 349.31012 396.11928 351.2502 396.25928 353.2002 C 396.58928 353.4802 397.25936 354.04959 397.58936 354.32959 C 397.59936 363.16934 397.71038 372.00058 397.64063 380.84033 C 394.56063 380.85033 391.49064 380.84053 388.41064 380.79053 C 387.10089 379.90053 385.76971 379.02993 384.44971 378.18018 C 384.38971 377.07018 384.34029 375.95913 384.30029 374.85938 C 381.68054 374.83938 379.05995 374.82957 376.4502 374.80957 C 376.2202 376.09957 375.9893 377.38994 375.7793 378.68994 C 371.9793 381.72994 366.99903 380.80932 362.50928 380.79932 C 361.92928 372.82932 363.5401 364.94924 363.3501 356.97949 C 366.32985 319.34049 369.03963 281.67853 371.86963 244.01953 C 372.14963 240.73953 372.78066 237.35038 371.68066 234.14063 C 369.85091 246.96013 369.65037 260.01994 368.38037 272.92969 C 367.19037 285.37944 367.24953 298.02957 364.76953 310.29932 C 365.40953 302.89932 365.24947 295.49032 365.45947 288.08057 C 366.33947 280.48057 365.2901 272.81022 366.3501 265.23047 C 367.2301 258.17072 366.18979 251.04023 367.02979 243.99023 C 367.95954 236.33048 366.90998 228.59945 367.72998 220.93945 C 368.07998 217.6397 368.25039 214.31903 368.15039 211.00928 C 367.66039 201.97953 369.37002 193.03024 368.77002 184.00049 C 370.04002 168.00074 369.29977 151.93916 369.50977 135.89941 C 372.53952 136.78941 375.54957 137.7507 378.55957 138.7207 C 377.10957 157.9902 375.34992 177.2503 374.41992 196.5498 L 375.68994 196.59961 C 376.40994 177.48011 378.7093 158.43957 379.5293 139.31982 C 393.9188 143.09982 407.92994 148.20928 422.17969 152.50928 C 428.32944 154.72928 435.65053 155.58047 440.04053 160.98047 C 443.83028 166.07022 445.11947 172.83982 444.20947 179.05957 C 437.82972 218.96857 431.82954 258.94161 425.52979 298.87061 C 422.16979 319.47986 419.38037 340.18999 415.63037 360.72949 L 417.25928 360.55957 C 426.10903 303.36107 434.98968 246.16825 443.91943 188.98975 C 444.83943 182.56975 446.71939 176.03981 445.12939 169.56006 C 444.10964 163.04031 439.55939 157.04913 433.12939 155.10938 C 420.73989 151.19938 408.34925 147.32032 395.98975 143.33057 C 391.14975 141.77057 386.17034 140.58004 381.60059 138.29004 C 436.10909 122.22054 493.15055 116.65 549.7793 115.5 C 549.6893 113.8 549.60027 112.09941 549.53027 110.39941 C 555.74027 109.16966 562.08988 109.49041 568.36963 109.92041 C 568.38963 111.77041 568.40994 113.6207 568.43994 115.4707 C 614.65894 116.3807 661.00071 120.38064 706.19971 130.40039 C 716.51946 132.98039 727.05007 134.88932 737.06982 138.54932 C 722.04032 143.54907 706.89884 148.18 691.81934 153 C 687.75934 154.4 683.28939 155.09965 679.87939 157.88965 C 674.25964 162.3194 672.29977 169.98058 672.50977 176.84033 C 679.03952 220.22933 686.24984 263.54193 692.57959 306.95068 L 691.93066 307.08984 C 688.67091 305.72009 685.11945 305.24992 682.18945 307.66992 C 682.80945 308.69992 683.39992 309.76068 684.16992 310.70068 C 685.90992 312.24068 688.27998 311.22023 690.22998 310.74023 C 690.72998 310.35023 691.72045 309.55992 692.21045 309.16992 C 692.42045 309.21992 692.85031 309.3101 693.07031 309.3501 C 695.81031 326.4396 698.29059 343.56038 701.10059 360.62988 C 703.14034 360.59988 705.18975 360.57951 707.23975 360.49951 C 705.65975 360.37951 704.07952 360.27018 702.50977 360.18018 C 699.83977 345.86043 698.0003 331.40003 695.56055 317.04053 C 688.34055 270.64153 681.2299 224.20931 673.8999 177.82031 C 673.2299 172.95056 674.55975 167.9998 676.48975 163.5498 C 678.9195 158.34005 684.63932 156.0607 689.79932 154.4707 C 706.01882 149.50095 722.09086 144.02951 738.37061 139.24951 C 739.42036 146.33926 739.6699 153.53018 739.8999 160.68018 C 740.3799 160.03018 740.87035 159.36971 741.36035 158.69971 C 740.62035 152.09971 740.27984 145.45911 739.83984 138.83936 C 742.53984 137.48936 745.52994 136.8601 748.43994 136.1001 C 749.70994 150.7096 747.72004 165.48005 749.54004 180.03955 C 750.12004 178.05955 750.30979 176.01045 750.27979 173.96045 C 750.20979 163.4307 750.27023 152.88888 750.24023 142.35938 C 752.78023 142.30938 755.34959 142.12945 757.82959 141.43945 C 757.66959 136.4897 758.17955 131.50033 757.53955 126.59033 C 755.29955 124.73033 752.19004 125.64004 749.54004 125.54004 C 749.46004 124.90004 749.30949 123.61975 749.22949 122.98975 C 743.87974 115.20975 734.21941 112.45969 725.39941 110.92969 C 681.62066 103.79969 637.35807 99.769916 593.04932 98.189941 C 582.80957 98.449941 572.62014 97.560215 562.40039 97.220215 C 562.85039 95.480265 562.0693 92.950444 564.0293 91.980469 C 573.67905 91.150494 583.35002 92.399551 593.00977 92.289551 C 636.44852 94.029501 679.89057 97.629735 722.80957 104.74951 C 727.68957 105.71951 734.84998 108.02911 737.47998 102.08936 C 737.00998 99.40931 736.72928 96.69993 736.75928 93.97998 C 736.82928 79.000355 736.79979 64.019664 736.77979 49.040039 C 736.72979 45.110139 737.38072 41.18992 736.99072 37.27002 C 734.72072 36.72002 732.40909 36.190371 730.06934 36.130371 C 616.03209 36.110371 501.97718 36.149863 387.93018 36.109863 z M 326.7085 412.28467 C 328.86479 412.29027 330.77395 413.22393 332.2002 414.93018 C 333.92002 420.42 334.35006 426.20969 334.56006 431.92969 C 335.17006 436.59951 335.97055 441.2601 337.06055 445.8501 C 339.56037 456.17992 343.45014 466.58059 350.89014 474.42041 C 339.03032 476.72041 325.21953 476.74945 315.44971 468.61963 C 307.80971 462.60963 299.83943 457.00984 292.59961 450.52002 C 287.27961 446.47002 280.60992 444.88031 274.1001 444.07031 C 274.2801 442.70031 274.46037 441.33021 274.63037 439.97021 C 271.49037 439.33039 268.3992 438.47973 265.35938 437.46973 C 266.7892 433.84973 267.91979 430.11982 269.52979 426.56982 C 276.28961 427.69982 283.22932 427.40023 290.04932 426.99023 C 302.99896 425.71041 316.00971 421.15015 325.76953 412.34033 C 326.08703 412.30283 326.40043 412.28387 326.7085 412.28467 z M 790.66699 412.3418 C 791.93742 412.33049 793.20363 412.79783 794.12988 413.84033 C 809.40964 426.08009 830.06978 429.0799 849.0293 426.64014 C 850.4793 430.3299 851.64994 434.12018 852.68994 437.93994 C 849.48994 438.51994 846.1791 438.95959 843.31934 440.57959 C 846.1891 446.95935 848.91963 453.40024 851.86963 459.75 C 853.64963 459.54 855.44 459.35068 857.25 459.20068 C 856.9 464.26068 852.52025 467.43053 848.26025 469.29053 C 826.66097 477.75029 805.08973 486.27995 783.47021 494.69971 C 776.21045 497.85947 768.15982 498.73971 760.31982 498.44971 C 761.52982 492.34971 763.32043 486.37904 764.44043 480.25928 C 764.84043 478.56928 765.00988 476.66994 766.37988 475.43994 C 776.49964 465.24018 780.8402 450.84997 782.9502 436.97021 C 784.21996 430.00045 783.51033 422.69945 785.84033 415.93945 C 786.42158 413.70844 788.54961 412.36064 790.66699 412.3418 z M 886.19678 430.68604 C 888.02303 430.68479 889.84969 430.70023 891.67969 430.74023 C 891.29969 432.24023 890.94012 433.76087 890.37012 435.20068 C 887.15012 435.36068 883.93998 435.23998 880.72998 435.22998 C 880.70998 433.72998 880.70973 432.22998 880.71973 430.72998 C 882.54454 430.70498 884.37053 430.68729 886.19678 430.68604 z M 885.42334 441.14209 C 887.1964 441.13945 888.97764 441.2366 890.74951 441.21973 C 890.67951 442.86953 890.63055 444.51969 890.56055 446.17969 C 887.37055 446.05969 883.94957 446.55984 881.00977 445.08984 C 879.48977 444.24984 880.29006 442.28066 881.31006 441.43066 C 882.67068 441.20754 884.04429 441.14414 885.42334 441.14209 z M 230.15918 441.16992 C 232.68855 441.16148 235.21699 441.21182 237.72949 441.54932 C 237.68949 442.80932 237.62002 444.07938 237.52002 445.35938 C 234.28002 446.07925 230.97003 446.26064 227.66016 446.16064 C 227.64016 444.50077 227.62939 442.84043 227.62939 441.19043 C 228.47189 441.18293 229.31606 441.17273 230.15918 441.16992 z M 268.68018 455.33936 C 277.42001 455.51936 286.07089 458.72932 292.99072 464.04932 C 297.41072 467.29915 302.06061 470.21956 306.37061 473.62939 C 308.91044 475.91939 311.70994 477.98045 314.93994 479.21045 C 317.33873 480.13334 319.81709 480.76941 322.29639 481.39453 C 323.03399 481.58046 323.74162 481.88348 324.48486 482.04492 C 327.72627 482.74898 331.01845 483.22369 334.33154 483.50244 C 340.95779 484.05994 347.67027 483.83461 354.24023 483.09961 C 354.39023 483.64961 354.68936 484.76031 354.83936 485.32031 C 356.01919 489.62031 357.04936 493.97061 357.83936 498.37061 C 350.81936 498.83061 343.70917 497.96997 337.06934 495.64014 C 314.42968 486.71031 291.75887 477.84001 269.10938 468.93018 C 265.10938 467.33018 261.36031 463.73911 261.07031 459.25928 C 262.83031 459.35928 264.61063 459.60988 266.39063 459.62988 C 267.24046 458.24988 267.93018 456.77919 268.68018 455.33936 z M 232.10303 464.96924 C 234.69499 464.95601 237.18484 465.38965 238.70068 467.85059 C 238.16068 468.66059 237.62961 469.4699 237.09961 470.2998 C 234.21961 471.0298 231.23004 471.10988 228.29004 470.87988 C 228.05004 468.95988 228.03031 467.05037 228.07031 465.13037 C 229.35937 465.10631 230.74528 464.97617 232.10303 464.96924 z M 885.44092 465.23145 C 886.9984 465.23033 888.59924 465.46588 889.75049 465.61963 C 890.00049 467.27963 890.18025 468.9499 890.26025 470.6499 C 886.99046 470.4399 882.52027 471.75948 880.28027 468.67969 C 880.36777 465.89219 882.84512 465.2333 885.44092 465.23145 z M 862.01807 488.12402 C 863.64937 488.05372 865.30875 488.18397 867 488.57959 C 870.59 489.23959 872.51051 492.68955 873.77051 495.78955 C 867.11051 496.53955 859.30941 493.98938 853.64941 498.60938 C 847.10964 498.50938 839.66029 500.37025 836.55029 506.77002 C 836.61029 509.10002 836.66982 511.44051 836.81982 513.77051 C 831.17005 513.64051 825.50986 513.7207 819.85986 513.7207 C 819.77986 514.3607 819.61027 515.65004 819.53027 516.29004 C 810.9205 516.07004 802.29068 516.58025 793.70068 516.01025 C 809.61045 508.70048 825.83084 502.0798 841.87061 495.0498 C 848.38663 492.49878 854.94812 488.42868 862.01807 488.12402 z M 255.12744 488.13281 C 259.49291 488.04 263.88291 489.37307 267.76025 491.33057 C 283.40009 498.04041 299.03022 504.78022 314.6499 511.56006 C 317.9599 513.01006 321.42002 514.15006 324.52002 516.06006 C 315.91018 516.50006 307.27951 516.15049 298.65967 516.25049 C 298.60967 515.61049 298.5102 514.32994 298.4502 513.68994 C 292.7502 513.74994 287.0492 513.60955 281.33936 513.78955 C 281.53936 510.74955 282.56963 507.13008 280.36963 504.58008 C 276.57963 500.18008 270.62023 498.52045 264.99023 498.71045 C 259.23039 494.09045 251.45068 496.47051 244.70068 495.77051 C 245.57068 492.68051 247.51004 489.61047 250.79004 488.73047 C 252.22004 488.35297 253.67229 488.16375 255.12744 488.13281 z M 884.83301 490.79004 C 886.09556 490.78347 887.37002 490.86973 888.52002 490.86035 C 888.56002 492.74035 888.57938 494.62047 888.60938 496.51025 C 884.98938 496.58025 880.93916 496.89994 878.10938 494.18994 C 879.33291 491.26807 882.0554 490.80449 884.83301 490.79004 z M 234.31055 490.81201 C 236.30844 490.82117 238.22956 491.23406 239.68066 492.82031 C 239.87066 497.57031 232.95958 496.17051 229.71973 496.52051 C 229.69973 494.72051 229.70043 492.94064 229.69043 491.16064 C 231.15605 491.04252 232.75652 490.80489 234.31055 490.81201 z "
     style="stroke:#000000;stroke-opacity:1" />
  <path
     fill="#fdfdfd"
     d=" M 556.21 91.77 C 558.08 91.75 559.96 91.75 561.85 91.75 C 561.54 93.59 561.33 95.44 561.17 97.30 C 560.21 97.31 558.28 97.33 557.31 97.34 C 556.91 95.49 556.52 93.64 556.21 91.77 Z"
     id="path4" />
  <path
     fill="#3360e3"
     d=" M 566.45 101.10 C 566.29 99.33 566.93 97.74 568.99 98.29 C 580.45 99.27 591.98 98.21 603.42 99.47 C 642.77 101.15 682.05 104.90 720.97 111.04 C 729.58 112.54 739.22 113.81 745.58 120.46 C 749.59 124.33 747.97 130.31 748.07 135.25 C 745.05 136.08 742.11 137.22 739.02 137.76 C 734.59 137.10 730.41 135.41 726.08 134.34 C 686.19 123.86 645.10 118.37 603.96 116.01 C 595.84 115.27 587.64 115.67 579.53 114.64 C 579.54 113.60 579.55 111.50 579.56 110.46 C 586.15 108.87 593.25 112.45 599.67 109.37 C 601.72 108.56 602.25 106.15 601.73 104.19 C 596.25 101.40 589.93 102.51 584.03 102.20 C 578.17 101.72 572.27 101.97 566.45 101.10 Z"
     id="path5" />
  <path
     fill="#3360e3"
     d=" M 511.05 99.62 C 524.48 99.00 537.93 98.85 551.36 98.30 C 551.44 99.02 551.58 100.46 551.65 101.18 C 544.11 101.66 536.56 102.72 529.01 101.97 C 525.13 102.12 521.07 102.14 517.45 103.67 C 515.88 104.39 516.58 106.49 516.18 107.84 C 522.29 112.38 530.12 110.06 537.05 109.84 C 539.39 110.50 538.03 113.35 538.37 115.07 C 501.78 115.88 465.23 119.46 429.20 126.01 C 414.72 128.95 400.21 131.84 386.05 136.15 C 383.75 136.77 381.46 137.67 379.05 137.73 C 375.89 137.22 372.90 136.04 369.87 135.09 C 370.83 130.03 368.73 123.90 373.06 120.01 C 379.41 113.91 388.57 112.43 396.94 111.10 C 434.73 105.16 472.85 101.41 511.05 99.62 Z"
     id="path6" />
  <path
     fill="#3360e3"
     d=" M 552.68 104.26 C 552.84 102.50 551.37 99.40 553.65 98.61 C 557.63 98.39 561.62 98.65 565.61 98.48 C 565.58 100.49 565.55 102.51 565.54 104.53 C 561.26 104.49 556.92 105.01 552.68 104.26 Z"
     id="path7" />
  <path
     fill="#3360e3"
     d=" M 518.19 104.67 C 528.75 101.79 539.87 104.92 550.45 102.25 C 550.68 103.66 550.57 105.30 551.83 106.28 C 556.27 106.53 560.73 106.27 565.18 106.39 C 565.75 106.10 566.91 105.51 567.48 105.22 C 567.45 104.48 567.38 103.00 567.34 102.25 C 578.03 104.82 589.20 101.91 599.89 104.58 C 599.68 105.79 599.62 107.04 599.19 108.19 C 595.88 109.10 592.41 109.74 588.98 109.28 C 581.70 107.94 574.29 108.87 566.94 108.56 C 557.31 108.10 547.68 108.84 538.04 108.55 C 531.67 108.17 524.96 111.12 518.90 108.05 C 518.27 107.05 518.42 105.78 518.19 104.67 Z"
     id="path8" />
  <path
     fill="#3360e3"
     d="m 549.53,110.4 c 6.21,-1.23 12.56,-0.91 18.84,-0.48 0.02,1.85 0.04,3.7 0.07,5.55 46.22,0.91 92.56,4.91 137.76,14.93 10.32,2.58 20.85,4.49 30.87,8.15 -15.03,5 -30.17,9.63 -45.25,14.45 -4.06,1.4 -8.53,2.1 -11.94,4.89 -5.62,4.43 -7.58,12.09 -7.37,18.95 6.53,43.39 13.74,86.7 20.07,130.11 l 0.49,2.4 c 2.74,17.09 5.22,34.21 8.03,51.28 2.04,-0.03 4.09,-0.05 6.14,-0.13 -1.58,-0.12 -3.16,-0.23 -4.73,-0.32 -2.67,-14.32 -4.51,-28.78 -6.95,-43.14 -7.22,-46.4 -14.33,-92.83 -21.66,-139.22 -0.67,-4.87 0.66,-9.82 2.59,-14.27 2.43,-5.21 8.15,-7.49 13.31,-9.08 16.22,-4.97 32.29,-10.44 48.57,-15.22 1.05,7.09 1.3,14.28 1.53,21.43 0.48,-0.65 0.97,-1.31 1.46,-1.98 -0.74,-6.6 -1.08,-13.24 -1.52,-19.86 2.7,-1.35 5.69,-1.98 8.6,-2.74 1.27,14.61 -0.72,29.38 1.1,43.94 0.1,6.65 -0.25,13.33 0.2,19.98 1.05,8.61 -0.01,17.3 1.07,25.92 -0.11,8.5 0.45,16.97 0.91,25.46 -0.85,0.01 -2.56,0.04 -3.42,0.05 -1.08,-11.42 -1.38,-22.96 -2.97,-34.3 -0.53,1.55 -0.77,3.19 -0.64,4.83 0.68,9.81 1.88,19.6 2.1,29.44 -10.95,0.02 -21.9,0.03 -32.85,0.01 -5.67,-0.17 -11.33,-0.52 -16.99,-0.22 5.02,32.06 11.43,63.91 16.1,96.02 -2.39,-0.02 -4.78,-0.11 -7.16,0.07 -0.91,3.75 1.63,7.08 1.53,10.77 0.02,7.58 0,15.15 0.01,22.73 -28.8,0.12 -57.61,0.02 -86.41,0.05 -18.05,-0.15 -36.12,0.31 -54.16,-0.24 0.05,4.85 0.07,9.71 -0.12,14.56 54.62,0.01 109.24,-0.06 163.85,0.03 0.01,12.81 -0.01,25.63 0.01,38.44 5.1,0.06 10.19,0.06 15.29,-0.02 0.01,-12.81 -0.11,-25.62 0.07,-38.42 l 11.19561,-0.26633 c -0.97,1.43 -0.37561,4.38633 -0.47561,6.01633 0.13,10 0.02,20.01 0.03,30.01 l -0.29,3.34 c -1.01,7.84 -0.68,15.83 -0.37,23.7 2.37,2.66 -1.25033,11.87015 1.28967,14.38015 -3.58,5.52 -2.40967,2.96985 -8.67967,5.08985 -8.16,2.69 -16.87,1.6 -25.04,-0.4 -0.31,-12.91 -0.04,-25.82 -0.15,-38.72 -5.1,-1.04 -10.3,-0.64 -15.46,-0.67 -44.68,-0.01 -89.37,0.01 -134.05,-0.01 -1.14,0.24 -3.54,-0.44 -3.46,1.42 -0.16,14.26 0.08,28.54 -0.1,42.81 16.5,0.57 33.04,0.06 49.56,0.23 30.72,0 61.44,0 92.15,0.01 0.04,-1.32 0.08,-2.62 0.14,-3.92 1.88,1.3 3.67,2.77 5.77,3.73 12.03,4.75 25.6,4.63 37.83,0.61 -0.03,10.39 0.03,20.79 -0.04,31.18 -26.78,-0.01 -53.56,0.13 -80.34,-0.07 -9.69,-8.53 -24.6,-9.73 -36.15,-4.52 -3.57,1.34 -6.21,5.15 -10.35,4.64 -43.99,-0.07 -87.97,-0.01 -131.95,-0.03 -3.67,-0.08 -7.39,0.36 -11.02,-0.31 -2.63,-1.45 -4.92,-3.51 -7.73,-4.64 -9.11,-3.86 -19.92,-3.64 -28.9,0.5 -3.22,1.25 -5.53,4.78 -9.26,4.47 -25.87,-0.06 -51.75,0.04 -77.62,-0.06 0.12,-10.42 -0.29,-20.84 -0.03,-31.26 13.64,4.58 29.76,4.6 42.29,-3.07 -0.04,0.43 -0.12,1.28 -0.17,1.7 0.31,-0.25 0.91,-0.75 1.22,-1 l -0.23,-0.81 0.56,-0.06 c 0.08,0.73 0.24,2.19 0.31,2.92 43.19,-0.02 86.37,0 129.55,-0.01 3.93,0 7.87,0.35 11.79,-0.08 0.1,-14.74 0.11,-29.48 -0.01,-44.22 -48.6,-0.38 -97.21,0.01 -145.81,-0.19 -2.26,-0.01 -4.54,-0.03 -6.77,0.39 -0.9,12.89 -0.02,25.87 -0.43,38.79 -11.68,3.69 -25.9,3.44 -35.29,-5.39 l 2.25,-76.18 c 3.56,-0.05 7.12,-0.1 10.69,-0.05 -0.01,12.82 -0.02,25.63 0.01,38.45 5.1,0.04 10.2,0.04 15.3,0.01 0.03,-12.8 0.04,-25.6 -0.01,-38.39 54.6,-0.24 109.2,-0.06 163.8,-0.1 -0.11,-4.85 -0.11,-9.7 -0.02,-14.55 -18.83,0.54 -37.68,0.08 -56.51,0.23 -28.06,-0.08 -56.12,0.17 -84.17,-0.12 0.08,-8.68 0.06,-17.36 0.05,-26.03 0.57,-0.56 1.13,-1.12 1.71,-1.67 -0.05,-1.92 -0.06,-3.84 -0.05,-5.76 -5.59,0 -11.17,-0.05 -16.76,0.1 0.19,1.94 0.36,3.88 0.5,5.83 0.33,0.28 1,0.85 1.33,1.13 0.01,8.84 0.12,17.67 0.05,26.51 -3.08,0.01 -6.15,0 -9.23,-0.05 -1.31,-0.89 -2.64,-1.76 -3.96,-2.61 -0.06,-1.11 -0.11,-2.22 -0.15,-3.32 -2.62,-0.02 -5.24,-0.03 -7.85,-0.05 -0.23,1.29 -0.46,2.58 -0.67,3.88 -3.8,3.04 -8.78,2.12 -13.27,2.11 -0.58,-7.97 1.03,-15.85 0.84,-23.82 2.98,-37.64 5.69,-75.3 8.52,-112.96 0.28,-3.28 0.91,-6.67 -0.19,-9.88 -1.83,12.82 -2.03,25.88 -3.3,38.79 -1.19,12.45 -1.13,25.1 -3.61,37.37 0.64,-7.4 0.48,-14.81 0.69,-22.22 0.88,-7.6 -0.17,-15.27 0.89,-22.85 0.88,-7.06 -0.16,-14.19 0.68,-21.24 0.93,-7.66 -0.12,-15.39 0.7,-23.05 0.35,-3.3 0.52,-6.62 0.42,-9.93 -0.49,-9.03 1.22,-17.98 0.62,-27.01 1.27,-16 0.53,-32.06 0.74,-48.1 3.03,0.89 6.04,1.85 9.05,2.82 -1.45,19.27 -3.21,38.53 -4.14,57.83 l 1.27,0.05 c 0.72,-19.12 3.02,-38.16 3.84,-57.28 14.39,3.78 28.4,8.89 42.65,13.19 6.15,2.22 13.47,3.07 17.86,8.47 3.79,5.09 5.08,11.86 4.17,18.08 -6.38,39.91 -12.38,79.88 -18.68,119.81 -3.36,20.61 -6.15,41.32 -9.9,61.86 l 1.63,-0.17 c 8.85,-57.2 17.73,-114.39 26.66,-171.57 0.92,-6.42 2.8,-12.95 1.21,-19.43 -1.02,-6.52 -5.57,-12.51 -12,-14.45 -12.39,-3.91 -24.78,-7.79 -37.14,-11.78 -4.84,-1.56 -9.82,-2.75 -14.39,-5.04 54.51,-16.07 111.55,-21.64 168.18,-22.79 -0.09,-1.7 -0.18,-3.4 -0.25,-5.1 z"
     id="path9"
     sodipodi:nodetypes="cccccccccccccccccccccccccccccccccccccccccccccccccccccccccccccccccccccccccccccccccccccccccccccccccccccccccccccccccccccccccccccccccccccccc"
     style="stroke:#000000;stroke-opacity:1" />
  <path
     fill="#3360e3"
     d=" M 569.20 110.45 C 572.36 110.49 575.53 110.49 578.69 110.41 C 578.68 111.87 578.68 113.33 578.70 114.80 C 575.79 113.93 572.75 114.17 569.76 114.26 C 569.49 113.00 569.35 111.72 569.20 110.45 Z"
     id="path10" />
  <path
     fill="#3360e3"
     d=" M 539.34 114.86 C 539.36 113.38 539.38 111.89 539.41 110.41 C 542.46 110.50 545.52 110.49 548.59 110.40 C 548.65 111.48 548.72 112.55 548.80 113.63 C 545.59 113.50 542.43 114.06 539.34 114.86 Z"
     id="path11" />
  <path
     fill="#fdfdfd"
     d=" M 524.24 163.53 C 524.32 159.85 528.76 159.63 530.62 162.01 C 530.22 162.66 529.44 163.96 529.04 164.61 C 527.40 164.41 525.80 164.04 524.24 163.53 Z"
     id="path14"
     style="stroke:#000000;stroke-opacity:1" />
  <path
     fill="#fdfdfd"
     d=" M 549.25 161.30 C 550.72 160.36 553.26 160.26 554.04 162.14 C 554.23 165.44 547.39 164.70 549.25 161.30 Z"
     id="path15"
     style="stroke:#000000;stroke-opacity:1" />
  <path
     fill="#fdfdfd"
     d=" M 564.50 163.34 C 563.33 161.58 566.12 161.13 567.01 160.13 C 567.88 160.91 569.13 161.42 569.76 162.47 C 568.81 164.53 566.12 164.73 564.50 163.34 Z"
     id="path16"
     style="stroke:#000000;stroke-opacity:1" />
  <path
     fill="#fdfdfd"
     d=" M 588.71 160.80 C 591.10 159.97 593.04 160.75 594.25 162.97 C 593.69 163.25 592.57 163.80 592.01 164.08 C 591.31 164.24 589.90 164.55 589.20 164.71 C 589.02 163.41 588.85 162.10 588.71 160.80 Z"
     id="path17"
     style="stroke:#000000;stroke-opacity:1" />
  <path
     fill="#050508"
     d=" M 741.04 172.00 C 740.91 167.99 739.16 163.37 741.59 159.76 C 741.88 171.21 743.24 182.60 743.86 194.04 C 743.98 197.93 745.54 202.08 743.83 205.81 C 743.67 205.78 743.35 205.72 743.20 205.69 C 743.15 194.45 741.59 183.25 741.04 172.00 Z"
     id="path18" />
  <path
     fill="#fdfdfd"
     d=" M 476.16 167.37 C 477.77 166.12 480.33 164.64 481.79 166.97 C 482.62 170.30 477.37 169.42 476.16 167.37 Z"
     id="path20"
     style="stroke:#000000;stroke-opacity:1" />
  <path
     fill="#fdfdfd"
     d=" M 635.78 166.90 C 637.27 166.01 639.32 164.47 640.84 166.22 C 642.06 166.78 641.26 168.29 641.45 169.30 C 639.90 169.34 638.36 169.36 636.83 169.37 C 636.57 168.75 636.04 167.51 635.78 166.90 Z"
     id="path21"
     style="stroke:#000000;stroke-opacity:1" />
  <path
     fill="#050508"
     d="m 568.22,218.03 c 0.29,-12.68 0.03,-25.36 0.15,-38.04 0.29,-3.33 -1.95,-7.12 0.6,-10 3.35,-3.69 8.92,-3.99 13.58,-3.74 16.79,2.02 33.58,4.05 50.36,6.16 5.25,0.62 10.82,0.67 15.55,3.33 5.08,2.7 8.92,7.78 9.66,13.53 8.51,49.41 16.97,98.83 25.63,148.21 0.55,3.49 2.48,7.93 -0.39,10.88 -4.2,4.33 -10.71,4.49 -16.33,4.32 -23.63694,-0.40846 -47.30958,0.62845 -70.94,-0.11 -9.84,0.92 -20.43,1.01 -29.18,-4.29 -0.57,-2.71 -0.77,-5.48 -0.7,-8.25 0.1,-11.69 -0.07,-23.38 0.07,-35.06 0.98,-8.5 0.6,-17.08 0.49,-25.62 m -15.29,0.32 c 0.14,10.8 -0.64,21.65 0.64,32.4 0.13,8.97 -0.04,17.95 0.07,26.92 0.08,3.1 -0.29,6.18 -0.8,9.24 -8.77,5.52 -19.54,5.16 -29.46,4.36 l -3.94,0.05 c -20.72,0.06 -41.44,0.04 -62.16,0.02 l -3.91,0.05 c -6.63,0.4 -14.61,-0.17 -18.57,-6.37 0.07,-5.24 1.7,-10.26 2.34,-15.43 7.9,-45.26 15.7,-90.53 23.48,-135.81 0.8,-5.16 1.38,-10.8 5.03,-14.86 3.39,-3.64 7.97,-6.32 12.97,-6.89 19.62,-2.37 39.24,-4.8 58.87,-7.16 4.5,-0.03 9.86,0.08 13.16,3.61 2.76,2.81 0.54,6.79 0.79,10.16 0.29,12.71 -0.27,25.43 0.2,38.14"
     id="path22"
     sodipodi:nodetypes="cccccccccccccccccccccccccccccccc"
     style="stroke:#000000;stroke-opacity:1" />
  <path
     fill="#fdfdfd"
     d=" M 660.84 173.44 C 662.46 171.18 665.09 171.18 667.11 173.05 C 665.58 175.43 662.64 175.62 660.84 173.44 Z"
     id="path23"
     style="stroke:#000000;stroke-opacity:1" />
  <path
     fill="#fdfdfd"
     d=" M 452.34 172.24 C 453.99 170.90 456.96 171.39 456.97 173.86 C 455.78 176.13 450.50 175.05 452.34 172.24 Z"
     id="path24"
     style="stroke:#000000;stroke-opacity:1" />
  <path
     fill="#050508"
     d=" M 373.82 196.71 L 375.17 196.69 C 374.82 208.63 373.49 220.54 372.73 232.46 C 372.61 232.60 372.39 232.88 372.28 233.01 C 370.99 229.41 372.04 225.64 372.28 221.98 C 372.70 213.55 373.95 205.16 373.82 196.71 Z"
     id="path25" />
  <path
     fill="#050508"
     d=" M 744.30 207.97 C 746.42 209.70 744.95 213.60 744.72 216.01 C 743.31 213.73 744.34 210.55 744.30 207.97 Z"
     id="path26" />
  <path
     fill="#fdfdfd"
     d=" M 444.28 216.26 C 443.56 212.78 447.34 213.30 449.47 213.60 C 449.54 214.53 449.61 215.47 449.68 216.41 C 447.88 217.42 445.96 217.62 444.28 216.26 Z"
     id="path28"
     style="stroke:#000000;stroke-opacity:1" />
  <path
     fill="#fdfdfd"
     d=" M 669.19 214.21 C 670.34 212.80 673.44 213.22 673.86 215.13 C 674.21 218.54 666.66 216.81 669.19 214.21 Z"
     id="path29"
     style="stroke:#000000;stroke-opacity:1" />
  <path
     fill="#fdfdfd"
     d=" M 442.63 229.72 C 443.23 229.58 444.45 229.28 445.05 229.14 C 445.62 229.31 446.76 229.66 447.33 229.83 C 447.43 230.77 447.53 231.71 447.64 232.66 C 445.65 233.30 443.66 232.98 441.76 232.26 C 441.98 231.63 442.41 230.36 442.63 229.72 Z"
     id="path31"
     style="stroke:#000000;stroke-opacity:1" />
  <path
     fill="#fdfdfd"
     d=" M 670.99 232.89 C 670.28 229.35 674.66 228.07 676.29 231.16 C 675.88 233.52 672.70 232.66 670.99 232.89 Z"
     id="path32"
     style="stroke:#000000;stroke-opacity:1" />
  <path
     fill="#3360e3"
     d="m 698.27,251.88 c 2.67,-0.04 5.35,-0.06 8.03,-0.08 -1.82,7.07 -2.75,14.92 0.39,21.75 0.51,1.32 2.08,0.88 3.19,1.05 12.94,0.05 25.88,-0.11 38.82,0.07 1.51,19.79 2.95,39.59 4.51,59.38 0.39,4.22 0.11,8.59 1.64,12.63 0.08,0.27 0.22,0.82 0.29,1.1 1.16,10.67 2.68353,22.22756 2.51353,32.94756 l -4.40715,0.52682 c -5.74,-0.96 -5.61638,1.36562 -10.53638,-2.55438 -0.22,-1.18 -0.47,-2.35 -0.75,-3.5 -1.98,-0.46 -4.02,-0.56 -6.03,-0.45 -2.11,-0.37 -1.88,2.2 -2.73,3.43 -0.95,1.02 -2.08,1.84 -3.16,2.72 -3.12,-0.06 -6.25,-0.07 -9.36,-0.11 -0.03,-8.74 0.07,-17.48 0,-26.22 0.55,-0.55 1.12,-1.09 1.7,-1.64 -0.04,-1.87 -0.04,-3.74 -0.02,-5.61 -2.58,-0.05 -5.16,-0.06 -7.73,-0.08 -5.46,-31.79 -10.92,-63.57 -16.36,-95.36 z"
     id="path33"
     sodipodi:nodetypes="ccccccccccccccccccccc" />
  <path
     fill="#fdfdfd"
     d=" M 435.57 261.63 C 437.80 260.16 440.56 260.51 441.82 263.04 C 440.11 264.92 437.58 265.19 435.49 263.82 C 435.51 263.27 435.55 262.18 435.57 261.63 Z"
     id="path36"
     style="stroke:#000000;stroke-opacity:1" />
  <path
     fill="#fdfdfd"
     d=" M 677.27 262.97 C 676.51 261.40 679.14 261.26 679.90 260.41 C 680.57 260.77 681.90 261.51 682.56 261.87 C 682.55 262.72 682.54 263.57 682.53 264.42 C 680.79 264.48 677.52 265.54 677.27 262.97 Z"
     id="path37"
     style="stroke:#000000;stroke-opacity:1" />
  <path
     fill="#fdfdfd"
     d=" M 750.30 279.02 C 750.40 277.20 749.23 274.02 752.34 274.37 C 752.55 279.90 751.95 285.48 753.06 290.94 C 753.07 294.09 753.85 297.59 752.47 300.50 L 752.01 300.86 C 751.37 293.59 751.06 286.29 750.30 279.02 Z"
     id="path39"
     style="fill:#3360e3;fill-opacity:1" />
  <path
     fill="#050508"
     d=" M 716.41 288.58 C 723.70 286.86 729.54 295.51 727.21 302.01 C 725.94 307.21 719.84 311.23 714.76 308.39 C 707.06 304.22 708.11 291.41 716.41 288.58 Z"
     id="path40" />
  <path
     fill="#3360e3"
     d=" M 752.01 300.86 L 752.47 300.50 C 753.69 300.89 753.84 303.63 752.31 303.52 C 751.46 302.72 751.36 301.84 752.01 300.86 Z"
     id="path41" />
  <path
     fill="#fdfdfd"
     d=" M 428.40 308.79 C 428.72 308.36 429.38 307.50 429.71 307.07 C 431.89 305.81 433.49 307.52 434.95 308.95 C 433.62 309.67 432.30 310.38 430.97 311.10 C 430.13 310.31 429.24 309.54 428.40 308.79 Z"
     id="path43"
     style="stroke:#000000;stroke-opacity:1" />
  <path
     fill="#fdfdfd"
     d=" M 684.96 307.35 C 686.61 305.57 690.92 307.09 689.56 309.77 C 687.83 312.17 681.98 309.85 684.96 307.35 Z"
     id="path44"
     style="stroke:#000000;stroke-opacity:1" />
  <path
     fill="#3360e3"
     d=" M 752.20 308.01 C 752.75 308.56 752.75 308.56 752.20 308.01 Z"
     id="path45" />
  <path
     fill="#3360e3"
     d=" M 753.22 317.94 C 752.64 315.86 752.12 312.41 753.56 310.87 C 754.05 312.96 754.41 316.31 753.22 317.94 Z"
     id="path46" />
  <path
     fill="#050508"
     d=" M 721.40 318.49 C 724.67 317.58 728.90 318.01 730.88 321.16 C 735.46 326.59 733.58 336.97 726.19 338.73 C 718.78 340.37 713.28 331.42 715.88 325.03 C 716.67 322.17 718.68 319.72 721.40 318.49 Z"
     id="path47" />
  <path
     fill="#fdfdfd"
     d=" M 425.47 350.45 C 426.34 350.57 427.21 350.69 428.09 350.81 C 428.50 351.40 429.34 352.58 429.75 353.17 C 427.78 355.11 424.97 355.04 423.01 353.12 C 423.81 352.22 424.63 351.32 425.47 350.45 Z"
     id="path50"
     style="stroke:#000000;stroke-opacity:1" />
  <path
     fill="#fdfdfd"
     d=" M 689.21 352.85 C 689.75 350.06 693.65 350.76 694.94 352.69 C 693.60 354.58 690.24 355.37 689.21 352.85 Z"
     id="path51"
     style="stroke:#000000;stroke-opacity:1" />
  <path
     fill="#fdfdfd"
     d=" M 517.44 354.56 C 519.16 354.41 520.88 354.36 522.61 354.41 C 522.70 355.49 522.78 356.57 522.86 357.65 C 521.08 357.91 519.14 358.43 517.53 357.35 C 517.45 356.42 517.42 355.49 517.44 354.56 Z"
     id="path52"
     style="stroke:#000000;stroke-opacity:1" />
  <path
     fill="#fdfdfd"
     d=" M 595.41 354.59 C 596.98 354.53 598.72 353.84 600.15 354.82 C 600.46 355.68 600.73 356.56 600.97 357.46 C 599.16 357.70 597.13 358.62 595.50 357.34 C 595.42 356.42 595.39 355.51 595.41 354.59 Z"
     id="path53"
     style="stroke:#000000;stroke-opacity:1" />
  <path
     fill="#fdfdfd"
     d=" M 662.60 354.24 C 664.33 354.18 666.12 354.25 667.57 355.36 C 667.49 355.85 667.35 356.82 667.27 357.31 C 665.53 358.15 663.60 358.44 661.97 357.23 C 662.12 356.49 662.44 354.99 662.60 354.24 Z"
     id="path54"
     style="stroke:#000000;stroke-opacity:1" />
  <path
     fill="#fdfdfd"
     d=" M 451.53 354.65 C 453.37 353.70 457.56 354.22 456.32 357.20 C 454.67 358.52 452.67 358.07 450.87 357.37 C 451.04 356.69 451.37 355.33 451.53 354.65 Z"
     id="path55"
     style="stroke:#000000;stroke-opacity:1" />
  <path
     fill="#fdfdfd"
     d=" M 297.59 364.41 C 299.89 364.37 302.20 364.38 304.50 364.42 L 304.40 365.66 L 305.61 365.43 C 305.61 366.76 305.61 368.10 305.62 369.44 C 303.16 370.89 300.30 370.64 297.58 370.56 L 297.58 369.31 L 296.36 369.67 C 296.36 368.22 296.36 366.78 296.35 365.34 L 297.58 365.70 L 297.59 364.41 Z"
     id="path56" />
  <path
     fill="#fdfdfd"
     d=" M 812.41 365.64 C 815.12 363.79 818.44 364.39 821.51 364.65 C 821.58 366.54 821.59 368.45 821.52 370.35 C 818.47 370.65 815.21 371.08 812.52 369.27 C 812.49 368.37 812.44 366.55 812.41 365.64 Z"
     id="path57" />
  <path
     fill="#fdfdfd"
     d=" M 275.11 383.14 C 277.71 380.74 281.39 381.55 284.60 381.36 L 284.43 382.25 C 285.69 382.30 286.84 382.67 287.88 383.36 L 288.65 383.39 L 288.38 384.70 L 289.62 384.38 C 289.61 386.41 289.60 388.45 289.60 390.49 L 288.36 390.29 L 288.55 391.61 C 288.15 391.62 287.36 391.64 286.96 391.64 C 286.35 391.93 285.11 392.50 284.50 392.78 L 284.42 393.42 C 282.39 393.41 280.37 393.43 278.35 393.50 L 278.53 392.24 C 278.01 392.42 276.96 392.80 276.44 392.99 L 276.61 391.76 C 275.20 391.58 273.74 391.30 272.93 390.00 C 272.35 388.35 272.40 386.62 272.83 384.95 C 273.61 384.37 274.37 383.77 275.11 383.14 Z"
     id="path58" />
  <path
     fill="#fdfdfd"
     d=" M 833.46 381.43 C 836.54 381.38 839.73 381.15 842.64 382.41 L 842.58 383.06 C 843.79 383.72 844.77 384.70 845.76 385.65 C 845.66 388.02 845.54 391.49 842.47 391.80 L 842.51 392.68 C 841.74 392.62 840.20 392.49 839.43 392.42 L 839.62 393.47 C 837.86 393.44 836.10 393.44 834.35 393.48 L 834.59 392.43 C 833.83 392.49 832.31 392.62 831.55 392.68 L 831.34 391.97 C 830.32 391.17 829.32 390.35 828.33 389.53 C 828.39 387.99 828.44 386.47 828.52 384.94 C 830.07 383.81 831.49 382.25 833.57 382.24 L 833.46 381.43 Z"
     id="path59" />
  <path
     fill="#fdfdfd"
     d=" M 338.25 393.28 C 339.66 392.28 341.39 392.85 342.97 392.99 C 344.03 393.46 345.06 394.05 346.00 394.74 C 348.41 395.86 346.99 399.15 349.45 400.33 C 351.63 400.50 353.83 400.47 356.02 400.54 C 356.59 400.13 357.71 399.31 358.27 398.90 C 358.28 397.67 358.30 396.45 358.33 395.24 C 359.45 395.24 360.58 395.24 361.72 395.25 C 361.44 421.15 362.03 447.06 361.43 472.95 C 358.29 470.07 355.58 466.75 353.45 463.07 C 346.45 450.57 344.14 436.02 343.33 421.88 C 342.90 418.07 342.13 414.12 339.92 410.90 C 338.13 408.37 335.31 406.92 332.74 405.32 C 335.24 401.62 336.54 397.35 338.25 393.28 Z"
     id="path60"
     style="fill:none" />
  <path
     fill="#fdfdfd"
     d=" M 756.95 459.26 C 759.06 461.20 761.10 463.23 763.19 465.20 C 761.49 467.91 759.73 470.75 756.91 472.44 C 756.62 468.05 756.64 463.64 756.95 459.26 Z"
     id="path70"
     style="fill:none" />
  <path
     fill="#fdfdfd"
     d=" M 404.75 479.39 L 405.57 479.28 L 405.80 480.09 C 405.49 480.34 404.89 480.84 404.58 481.09 C 404.63 480.67 404.71 479.82 404.75 479.39 Z"
     id="path76" />
  <path
     fill="#fdfdfd"
     d=" M 712.86 479.98 C 716.00 478.65 712.87 483.33 712.86 479.98 Z"
     id="path77" />
  <path
     fill="#fdfdfd"
     d=" M 264.96 503.09 C 265.92 501.83 268.75 503.06 267.60 504.63 C 266.63 505.85 263.78 504.63 264.96 503.09 Z"
     id="path84" />
  <path
     fill="#fdfdfd"
     d=" M 842.44 509.24 C 843.33 507.83 845.59 509.41 844.61 510.75 C 843.71 512.16 841.43 510.56 842.44 509.24 Z"
     id="path94" />
  <path
     fill="#fdfdfd"
     d="m 859.00255,510.05 c -0.05,-1.82 2.92,-1.8 2.99,-0.04 0,1.75 -2.99,1.83 -2.99,0.04 z"
     id="path95" />
  <path
     fill="#fdfdfd"
     d="m 850.89781,516.31686 c -0.05,-1.82 2.92,-1.8 2.99,-0.04 0,1.75 -2.99,1.83 -2.99,0.04 z"
     id="path95-0" />
  <path
     fill="#fdfdfd"
     d=" M 265.08 514.28 C 266.06 512.90 268.76 514.31 267.58 515.84 C 266.62 517.20 263.85 515.76 265.08 514.28 Z"
     id="path98" />
  <path
     fill="#050508"
     d=" M 19.10 642.07 C 26.84 637.33 36.28 637.86 45.00 637.99 C 67.10 637.81 89.21 637.95 111.31 637.90 C 111.37 644.03 111.34 650.16 111.33 656.29 C 85.86 656.30 60.39 656.29 34.91 656.30 C 31.79 656.24 28.61 657.54 26.80 660.17 C 25.24 663.19 25.51 666.83 26.53 669.99 C 27.47 672.54 30.51 673.46 32.99 673.44 C 49.88 673.52 66.77 673.30 83.66 673.54 C 93.08 673.57 103.02 677.76 107.82 686.22 C 111.21 691.13 111.00 697.28 111.09 702.99 C 111.29 715.92 99.27 726.44 86.94 727.50 C 59.86 727.55 32.78 727.53 5.70 727.51 C 5.70 721.45 5.73 715.40 5.68 709.35 C 31.78 709.17 57.89 709.32 84.00 709.27 C 87.40 709.35 91.31 706.67 91.28 703.02 C 91.23 700.02 91.91 696.64 90.05 694.04 C 87.92 692.04 84.78 691.86 82.01 691.71 C 65.33 691.68 48.64 691.75 31.95 691.68 C 23.72 691.68 15.61 687.77 10.65 681.19 C 6.07 674.79 5.56 666.44 6.67 658.90 C 7.77 651.66 13.04 645.79 19.10 642.07 Z"
     id="path99" />
  <path
     fill="#050508"
     d=" M 136.35 643.46 C 144.16 637.39 154.62 637.84 163.97 637.97 C 186.06 637.83 208.17 637.85 230.24 638.13 C 230.23 644.18 230.24 650.23 230.23 656.28 C 204.79 656.32 179.35 656.27 153.92 656.31 C 150.86 656.30 147.72 657.59 145.97 660.19 C 144.78 662.95 145.11 666.02 145.07 668.96 C 144.81 676.98 145.38 685.00 144.95 693.02 C 145.08 696.99 144.90 701.01 145.45 704.96 C 145.82 707.58 148.43 709.32 150.97 709.26 C 177.38 709.29 203.79 709.25 230.21 709.28 C 230.27 715.35 230.21 721.41 230.24 727.48 C 204.16 727.60 178.07 727.47 151.98 727.55 C 142.28 727.88 132.53 722.45 127.99 713.82 C 125.19 708.33 125.34 702.00 125.29 696.01 C 125.43 684.89 125.05 673.75 125.48 662.64 C 125.54 654.88 129.98 647.68 136.35 643.46 Z"
     id="path100" />
  <path
     fill="#050508"
     d=" M 245.24 638.15 C 264.81 637.45 284.39 638.36 303.96 637.89 C 314.59 638.27 326.25 636.41 335.82 642.16 C 343.19 646.32 349.04 654.21 348.71 662.95 C 348.65 676.96 348.74 690.98 348.67 705.00 C 348.17 717.54 336.16 727.23 324.06 727.53 C 306.03 727.54 287.99 727.50 269.96 727.54 C 261.78 727.74 253.77 723.70 248.64 717.41 C 243.72 710.79 243.05 701.91 244.53 694.03 C 245.72 687.28 250.66 681.90 256.21 678.23 C 261.46 674.82 267.83 673.93 273.96 673.76 C 290.50 673.75 307.04 673.78 323.58 673.75 C 323.70 679.84 323.63 685.95 323.62 692.05 C 307.76 692.27 291.89 692.10 276.03 692.14 C 272.85 692.21 269.29 691.71 266.58 693.79 C 263.01 696.21 263.06 701.25 263.97 705.03 C 264.45 707.76 267.30 709.50 269.96 709.28 C 287.66 709.26 305.37 709.29 323.08 709.26 C 326.33 709.25 329.63 706.55 328.90 703.03 C 328.86 689.66 328.93 676.29 328.87 662.93 C 328.89 658.50 323.82 656.34 320.01 656.32 C 295.11 656.27 270.21 656.28 245.31 656.32 C 245.17 650.26 245.28 644.20 245.24 638.15 Z"
     id="path101" />
  <path
     fill="#050508"
     d=" M 363.71 637.96 C 370.27 637.78 376.81 638.26 383.37 637.86 C 383.48 659.22 383.33 680.58 383.44 701.94 C 383.30 705.29 385.16 709.19 388.95 709.24 C 411.55 709.32 434.16 709.24 456.76 709.28 C 456.77 715.36 456.77 721.44 456.76 727.53 C 434.50 727.54 412.24 727.50 389.98 727.54 C 380.00 727.73 369.88 721.82 365.83 712.57 C 363.34 706.35 363.71 699.53 363.70 692.97 C 363.71 674.63 363.67 656.29 363.71 637.96 Z"
     id="path102" />
  <path
     fill="#050508"
     d=" M 483.00 641.14 C 488.51 638.22 494.90 638.18 500.98 637.89 C 509.31 638.11 517.64 637.79 525.98 637.89 C 534.95 638.00 543.97 637.47 552.89 638.76 C 562.99 640.57 572.46 648.55 573.67 659.12 C 573.96 665.85 574.61 673.27 570.53 679.10 C 565.55 686.44 557.06 691.75 548.03 691.72 C 530.07 691.71 512.12 691.70 494.16 691.72 C 493.76 685.62 494.22 679.53 494.12 673.44 C 511.74 673.44 529.36 673.45 546.98 673.44 C 550.40 673.51 554.32 670.70 554.22 667.03 C 554.21 664.32 554.62 661.35 553.13 658.93 C 551.15 656.59 547.80 656.47 544.97 656.31 C 529.65 656.27 514.32 656.32 499.00 656.29 C 496.42 656.38 493.65 656.32 491.36 657.65 C 488.67 659.46 488.75 663.09 488.65 665.98 C 488.72 677.97 488.58 689.96 488.72 701.95 C 488.57 705.86 492.04 709.45 495.97 709.27 C 521.56 709.28 547.16 709.26 572.75 709.28 C 572.76 715.36 572.77 721.44 572.74 727.53 C 546.47 727.52 520.20 727.54 493.94 727.52 C 483.83 726.93 474.09 720.15 470.49 710.62 C 468.15 702.62 469.06 694.17 468.87 685.96 C 469.06 676.64 468.33 667.27 469.66 658.02 C 470.92 650.57 476.30 644.36 483.00 641.14 Z"
     id="path103" />
  <path
     fill="#050508"
     d=" M 668.80 640.98 C 674.03 638.09 680.14 638.21 685.93 637.90 C 693.45 637.92 701.03 637.65 708.50 638.79 C 715.56 639.97 721.46 645.01 724.87 651.15 C 729.48 659.25 730.78 668.61 733.35 677.44 C 737.49 694.15 742.20 710.73 746.06 727.51 C 739.33 727.52 732.59 727.58 725.86 727.47 C 723.01 715.69 719.79 703.99 716.96 692.21 C 701.77 692.08 686.58 692.17 671.40 692.16 C 672.62 685.87 673.98 679.62 675.43 673.39 C 687.76 673.50 700.11 673.43 712.45 673.42 C 710.74 668.82 710.22 663.70 707.58 659.49 C 705.32 655.97 700.60 656.29 696.96 656.28 C 691.16 656.51 685.28 655.78 679.55 656.83 C 676.25 657.58 674.87 660.94 674.23 663.91 C 668.98 685.12 663.65 706.30 658.35 727.50 C 651.61 727.54 644.88 727.55 638.14 727.49 C 643.60 705.47 649.10 683.45 654.64 661.45 C 656.75 653.32 660.98 644.91 668.80 640.98 Z"
     id="path104" />
  <path
     fill="#050508"
     d=" M 758.56 638.14 C 765.12 637.74 771.71 637.81 778.28 638.06 C 778.31 659.04 778.28 680.03 778.30 701.01 C 778.41 703.68 778.56 707.16 781.33 708.50 C 782.73 709.41 784.44 709.25 786.06 709.29 C 804.39 709.24 822.72 709.30 841.05 709.27 C 843.94 709.41 847.18 707.17 846.87 704.02 C 846.97 689.02 846.80 674.01 846.96 659.00 C 847.52 652.08 846.17 645.03 847.26 638.19 C 853.68 637.55 860.24 637.99 866.71 638.16 C 866.68 660.12 866.70 682.09 866.70 704.05 C 866.78 714.03 859.19 722.86 849.97 725.94 C 846.16 727.46 842.03 727.70 837.97 727.54 C 820.30 727.52 802.62 727.51 784.94 727.54 C 776.12 727.79 767.33 723.21 762.42 715.91 C 758.23 709.40 758.53 701.38 758.58 693.97 C 758.57 675.36 758.60 656.75 758.56 638.14 Z"
     id="path105" />
  <path
     fill="#050508"
     d=" M 881.70 638.10 C 916.39 637.78 951.06 638.02 985.76 637.89 C 985.92 644.02 985.82 650.16 985.83 656.29 C 971.66 656.30 957.49 656.29 943.32 656.30 C 943.31 680.04 943.32 703.78 943.31 727.52 C 936.75 727.53 930.18 727.52 923.62 727.52 C 923.61 703.78 923.62 680.04 923.62 656.30 C 909.65 656.28 895.68 656.31 881.71 656.29 C 881.70 650.22 881.70 644.16 881.70 638.10 Z"
     id="path106" />
  <path
     id="path107"
     d="M 1056.5156 637.92188 C 1048.6631 637.93312 1040.8095 637.98572 1032.9595 637.99072 C 1029.1195 637.88072 1025.2607 638.19957 1021.4707 638.80957 C 1014.3507 640.37957 1007.9304 644.84065 1003.9204 650.91064 C 999.07042 658.34064 1000.4795 667.6105 1000.2495 676.00049 C 1000.4795 686.28048 999.69953 696.6194 1000.7695 706.87939 C 1001.9495 716.79938 1010.4396 724.54981 1019.8696 726.7998 C 1023.4996 727.8498 1027.3093 727.4693 1031.0493 727.5293 C 1048.0393 727.5293 1065.03 727.4998 1082.02 727.5498 C 1092.66 727.8698 1103.4406 721.20056 1107.1406 711.08057 C 1108.7706 706.90057 1108.2903 702.36072 1108.3403 697.99072 C 1108.3403 687.65073 1108.3306 677.30997 1108.3506 666.97998 C 1108.3306 662.99998 1108.7003 658.85939 1107.0103 655.12939 C 1102.8503 644.47941 1091.2703 637.89059 1080.0703 638.10059 C 1072.2203 637.94059 1064.3681 637.91063 1056.5156 637.92188 z M 1029.5713 656.21777 C 1030.0516 656.21252 1030.5323 656.23051 1031.0098 656.27051 C 1047.3397 656.34051 1063.67 656.24031 1080 656.32031 C 1083.87 656.23031 1088.5706 658.6395 1088.6206 662.97949 C 1088.6606 676.64948 1088.6606 690.32074 1088.6206 703.99072 C 1088.7106 706.95072 1085.9103 709.28072 1083.0703 709.24072 C 1064.3803 709.32072 1045.6893 709.23053 1027.0093 709.29053 C 1024.6093 709.47053 1021.7303 708.59945 1020.7603 706.18945 C 1019.9903 703.86946 1019.8603 701.38045 1019.8403 698.96045 C 1019.8603 688.30046 1019.8603 677.65022 1019.8403 666.99023 C 1019.8103 664.67024 1020.2707 662.39941 1020.7207 660.14941 C 1022.8645 657.42817 1026.2092 656.25455 1029.5713 656.21777 z " />
  <path
     fill="#050508"
     d=" M 0.00 738.62 C 372.67 738.62 745.33 738.62 1118.00 738.62 L 1118.00 745.75 C 745.33 745.75 372.67 745.75 0.00 745.75 L 0.00 738.62 Z"
     id="path109" />
  <path
     fill="#fdfdfd"
     d=" M 0.00 745.75 C 372.67 745.75 745.33 745.75 1118.00 745.75 L 1118.00 894.00 L 980.85 894.00 C 980.83 891.59 980.82 889.18 980.81 886.78 C 699.71 886.77 418.61 886.80 137.51 886.77 C 137.47 889.17 137.45 891.58 137.44 894.00 L 0.00 894.00 L 0.00 745.75 Z"
     id="path110"
     style="fill:none" />
  <path
     fill="#050508"
     d=" M 142.81 786.27 C 169.88 786.29 196.96 786.14 224.03 786.35 C 234.15 786.18 244.67 791.14 249.31 800.44 C 252.46 806.14 251.73 812.84 251.56 819.08 C 250.51 831.17 238.65 839.96 227.01 840.31 C 205.97 840.30 184.92 840.34 163.88 840.29 C 163.87 834.09 163.87 827.89 163.87 821.70 C 184.58 821.64 205.28 821.68 225.98 821.68 C 229.16 821.99 232.37 819.32 231.89 815.98 C 231.68 812.87 232.72 809.11 230.48 806.55 C 228.06 804.77 224.91 804.53 222.00 804.49 C 202.18 804.51 182.36 804.48 162.54 804.51 C 162.54 828.24 162.54 851.98 162.54 875.72 C 155.95 875.70 149.35 875.81 142.76 875.65 C 142.83 845.86 142.73 816.06 142.81 786.27 Z"
     id="path111" />
  <path
     fill="#050508"
     d=" M 274.19 792.11 C 280.27 787.13 288.41 786.20 296.00 786.25 C 311.59 786.37 327.18 786.04 342.76 786.41 C 352.04 786.43 361.41 790.89 366.33 798.92 C 370.12 804.84 369.65 812.18 369.29 818.91 C 367.48 830.37 356.35 839.17 345.02 839.85 C 326.55 839.91 308.09 839.85 289.62 839.87 C 289.61 833.80 289.61 827.74 289.62 821.67 C 307.06 821.67 324.51 821.66 341.95 821.68 C 345.12 821.97 348.35 819.93 349.57 817.03 C 349.64 813.61 350.58 809.57 348.31 806.65 C 346.03 804.78 342.89 804.57 340.07 804.49 C 324.38 804.52 308.69 804.46 293.00 804.52 C 290.53 804.69 287.61 804.80 285.89 806.86 C 284.26 808.84 284.41 811.58 284.28 814.00 C 284.32 826.02 284.20 838.04 284.33 850.06 C 284.20 853.83 287.18 857.43 291.06 857.46 C 316.83 857.50 342.60 857.43 368.37 857.49 C 368.34 863.57 368.41 869.66 368.33 875.75 C 342.90 875.72 317.48 875.72 292.05 875.75 C 281.75 876.24 271.53 870.08 266.92 860.90 C 264.06 854.71 264.60 847.69 264.55 841.05 C 264.65 831.00 264.35 820.94 264.70 810.89 C 264.90 803.63 268.12 796.32 274.19 792.11 Z"
     id="path112" />
  <path
     fill="#050508"
     d=" M 385.23 786.26 C 412.15 786.30 439.08 786.16 466.00 786.33 C 475.19 786.27 484.87 789.98 490.12 797.84 C 494.59 803.91 494.45 811.83 493.96 819.00 C 493.57 823.67 490.87 827.56 488.08 831.12 C 491.16 835.18 494.09 839.73 494.10 845.03 C 494.12 855.25 494.20 865.48 494.04 875.70 C 487.47 875.76 480.90 875.72 474.33 875.72 C 474.25 865.43 474.46 855.14 474.23 844.85 C 473.17 840.97 468.48 840.42 465.08 840.32 C 445.51 840.31 425.93 840.29 406.36 840.33 C 406.27 834.10 406.27 827.87 406.36 821.65 C 427.23 821.68 448.11 821.69 468.98 821.65 C 471.96 821.72 474.62 819.07 474.32 816.04 C 474.20 812.99 475.01 809.51 473.10 806.86 C 470.97 804.84 467.82 804.63 465.04 804.50 C 445.01 804.50 424.99 804.50 404.96 804.50 C 404.66 828.24 404.93 851.98 404.82 875.72 C 398.29 875.73 391.76 875.73 385.23 875.72 C 385.22 845.90 385.22 816.08 385.23 786.26 Z"
     id="path113" />
  <path
     fill="#050508"
     d=" M 522.00 791.88 C 527.60 787.35 534.99 786.22 541.99 786.25 C 566.70 786.28 591.42 786.21 616.13 786.28 C 616.21 792.34 616.15 798.40 616.17 804.47 C 590.79 804.54 565.40 804.47 540.02 804.50 C 536.87 804.49 533.52 805.81 531.82 808.57 C 530.27 812.75 530.98 817.26 530.84 821.62 C 559.28 821.76 587.72 821.61 616.17 821.69 C 616.17 827.89 616.17 834.09 616.17 840.29 C 587.72 840.40 559.27 840.17 530.82 840.41 C 530.86 852.18 530.84 863.96 530.83 875.73 C 524.30 875.72 517.77 875.73 511.24 875.72 C 511.29 854.50 511.12 833.27 511.32 812.05 C 511.17 804.02 515.33 796.31 522.00 791.88 Z"
     id="path114" />
  <path
     fill="#050508"
     d=" M 655.30 786.41 C 670.86 786.04 686.44 786.37 702.02 786.25 C 709.84 786.21 718.27 787.14 724.48 792.38 C 731.22 797.25 734.38 805.78 733.56 813.93 C 734.75 827.52 722.03 839.18 709.04 839.85 C 690.59 839.90 672.14 839.85 653.69 839.87 C 653.67 833.80 653.68 827.74 653.68 821.67 C 671.46 821.65 689.24 821.70 707.01 821.65 C 709.71 821.70 712.04 819.75 713.46 817.61 C 714.05 814.83 713.85 811.91 713.61 809.10 C 712.90 805.24 708.33 804.66 705.10 804.52 C 689.39 804.46 673.68 804.52 657.97 804.49 C 655.15 804.63 651.76 804.60 649.83 807.01 C 648.38 808.99 648.44 811.60 648.32 813.95 C 648.31 824.97 648.35 835.99 648.30 847.02 C 648.30 849.01 648.30 851.05 648.91 852.97 C 649.84 855.87 653.01 857.65 655.96 857.48 C 681.46 857.47 706.96 857.45 732.45 857.49 C 732.45 863.55 732.42 869.61 732.47 875.67 C 707.64 875.81 682.80 875.67 657.96 875.74 C 644.46 877.13 629.89 867.00 628.94 852.97 C 628.25 843.67 628.81 834.34 628.63 825.03 C 628.83 816.99 627.73 808.55 630.99 800.96 C 635.19 791.75 645.43 786.47 655.30 786.41 Z"
     id="path115" />
  <path
     fill="#050508"
     d=" M 763.11 790.07 C 768.45 786.79 774.89 786.29 781.01 786.24 C 805.53 786.30 830.04 786.18 854.56 786.31 C 854.50 792.37 854.54 798.43 854.53 804.49 C 829.07 804.51 803.61 804.48 778.16 804.50 C 773.99 804.41 769.38 807.38 769.42 811.91 C 769.18 823.93 769.41 835.97 769.31 848.00 C 769.17 850.79 769.77 853.56 770.91 856.11 C 774.29 858.03 778.22 857.40 781.93 857.47 C 806.13 857.47 830.33 857.47 854.53 857.47 C 854.53 863.55 854.53 869.64 854.53 875.72 C 828.03 875.74 801.53 875.72 775.03 875.73 C 763.99 875.67 752.88 867.88 750.50 856.85 C 748.96 848.32 749.88 839.62 749.63 831.01 C 749.89 822.72 748.96 814.33 750.44 806.12 C 751.82 799.11 757.19 793.67 763.11 790.07 Z"
     id="path116" />
  <path
     fill="#050508"
     d=" M 868.44 786.31 C 903.18 786.18 937.92 786.28 972.67 786.26 C 972.65 792.34 972.69 798.42 972.64 804.51 C 958.48 804.48 944.32 804.51 930.16 804.49 C 930.08 828.22 930.21 851.96 930.09 875.69 C 923.51 875.76 916.93 875.72 910.35 875.72 C 910.34 851.99 910.35 828.25 910.35 804.51 C 896.39 804.47 882.43 804.51 868.47 804.49 C 868.45 798.43 868.50 792.37 868.44 786.31 Z"
     id="path117" />
  <path
     fill="#050508"
     d=" M 137.44 894.00 C 137.45 891.58 137.47 889.17 137.51 886.77 C 418.61 886.80 699.71 886.77 980.81 886.78 C 980.82 889.18 980.83 891.59 980.85 894.00 L 137.44 894.00 Z"
     id="path118" />
  <path
     fill="#fdfdfd"
     d="m 850.98775,504.40634 c -0.05,-1.82 2.92,-1.8 2.99,-0.04 0,1.75 -2.99,1.83 -2.99,0.04 z"
     id="path95-1" />
  <path
     fill="#fdfdfd"
     d="m 256.50067,509.86252 c -0.05,-1.82 2.92,-1.8 2.99,-0.04 0,1.75 -2.99,1.83 -2.99,0.04 z"
     id="path95-8" />
  <path
     fill="#fdfdfd"
     d="m 273.75067,509.86252 c -0.05,-1.82 2.92,-1.8 2.99,-0.04 0,1.75 -2.99,1.83 -2.99,0.04 z"
     id="path95-2" />
</svg>
